<mxfile host="app.diagrams.net" modified="2024-04-09T14:45:07.593Z" agent="Mozilla/5.0 (Windows NT 10.0; Win64; x64) AppleWebKit/537.36 (KHTML, like Gecko) Chrome/123.0.0.0 Safari/537.36" etag="QYQLvkEQFEqfE1GQP9hQ" version="24.2.3" type="device">
  <diagram name="Page-1" id="BgVvtl0pdgPw4XYoaLxe">
    <mxGraphModel dx="1434" dy="833" grid="1" gridSize="10" guides="1" tooltips="1" connect="1" arrows="1" fold="1" page="1" pageScale="1" pageWidth="1169" pageHeight="827" math="0" shadow="0">
      <root>
        <mxCell id="0" />
        <mxCell id="1" parent="0" />
        <mxCell id="gE6CBauCtL9fu7mNOvlH-1" value="" style="whiteSpace=wrap;html=1;aspect=fixed;" vertex="1" parent="1">
          <mxGeometry x="169" y="119" width="20" height="20" as="geometry" />
        </mxCell>
        <mxCell id="gE6CBauCtL9fu7mNOvlH-10" value="" style="whiteSpace=wrap;html=1;aspect=fixed;" vertex="1" parent="1">
          <mxGeometry x="169" y="139" width="20" height="20" as="geometry" />
        </mxCell>
        <mxCell id="gE6CBauCtL9fu7mNOvlH-15" value="" style="whiteSpace=wrap;html=1;aspect=fixed;" vertex="1" parent="1">
          <mxGeometry x="169" y="159" width="20" height="20" as="geometry" />
        </mxCell>
        <mxCell id="gE6CBauCtL9fu7mNOvlH-16" value="" style="whiteSpace=wrap;html=1;aspect=fixed;" vertex="1" parent="1">
          <mxGeometry x="169" y="179" width="20" height="20" as="geometry" />
        </mxCell>
        <mxCell id="gE6CBauCtL9fu7mNOvlH-17" value="" style="whiteSpace=wrap;html=1;aspect=fixed;" vertex="1" parent="1">
          <mxGeometry x="170" y="280" width="20" height="20" as="geometry" />
        </mxCell>
        <mxCell id="gE6CBauCtL9fu7mNOvlH-18" value="" style="whiteSpace=wrap;html=1;aspect=fixed;" vertex="1" parent="1">
          <mxGeometry x="170" y="300" width="20" height="20" as="geometry" />
        </mxCell>
        <mxCell id="gE6CBauCtL9fu7mNOvlH-19" value="" style="whiteSpace=wrap;html=1;aspect=fixed;" vertex="1" parent="1">
          <mxGeometry x="170" y="320" width="20" height="20" as="geometry" />
        </mxCell>
        <mxCell id="gE6CBauCtL9fu7mNOvlH-20" value="" style="whiteSpace=wrap;html=1;aspect=fixed;" vertex="1" parent="1">
          <mxGeometry x="170" y="340" width="20" height="20" as="geometry" />
        </mxCell>
        <mxCell id="gE6CBauCtL9fu7mNOvlH-21" value="Input image&#xa;(16x16)" style="shape=image;verticalLabelPosition=bottom;labelBackgroundColor=default;verticalAlign=top;aspect=fixed;imageAspect=0;image=data:image/png,iVBORw0KGgoAAAANSUhEUgAAAiQAAAILCAMAAADv13ehAAAAAXNSR0IArs4c6QAAAARnQU1BAACxjwv8YQUAAAMAUExURQAAAP///wgICL29vRAQEMXFxff399bW1kJCOnN7c8XOzrWtta2trRkZGZSUlCEZIUpKUikpKWNjWt7m5oSEhDExMd7e1kpKSlpaWu/v72Nra6WlnJycnDE6OnNzc4SMjOZac1Jj3lJjnBlj3hljnLVac1LeEFLea1KcaxneEBneaxmca5TvhJTvGVIpGYyMvb2MtYRCc4QQc1Le71LeQlLenFKcnFKc7xneQhnenBmcnBne7xmc71LexVKcxRnexRmcxd7vtSFaQt7vSpTvtZTvSlpaIYS93ua9rb2M5oyM7++Mtc5StYRStc4ZtYQZtUIxaxAxa84ZEIQZEKW93u+M5s69Us5S5oRS5oS9Us4Z5oQZ5s69GYS9Gc6MUoSMUs6MGYSMGc5aEIRaEFKMEBmMEM4ZQoQZQu9StaVSte8ZtaUZtVIx71IxrRkx7xkxrVIxzlIxjBkxzhkxjOYpc7Upc+8ZEKUZEOYIc7UIc+a97+a9hHu1hBApOrW9hOaMhLWMhBBaEIzv5s5aQoRaQlKMQhmMQs7vhM7vGe+9Uu9S5qVS5qW9Uu8Z5qUZ5u+9GaW9GYy9pe+MUqWMUu+MGaWMGe9aEKVaEFKtEBmtEO8ZQqUZQr3v5hBra1II5lIIcxkI5hkIc1IIrVIIOhkIrRkIOjFaEO9aQqVaQlKtQhmtQu/vhO/vGUJra1opQggxEEIIEGM6a7Xv/5S1hIRrhMW95u+9zoxrY4SEnL293iExEDoIADEpELXFpZSEezEhQvfm3lpjSvf33lpjUlpra63FpUIpQoScnCk6OsW1rd733t7v7yEZCMXOrSkhQmNzc3t7jDE6Svfm7wgZCKWEnLWtpWNzY3uMe9a9znNrY3uEjMW1zgAAEAAQEGNjc97e72NKUggZGZSElBAAEHOEe//m/4R7c1pKSlpaa97m1oSEc+/e72NrWr3OvTEhMf/39wAIAMXOxTE6MUJCSq2tnL2tvSkZKQAACO/393NjcxAQGff/9wgACBAQCNbWzgAAAHjWCscAAAEAdFJOU////////////////////////////////////////////////////////////////////////////////////////////////////////////////////////////////////////////////////////////////////////////////////////////////////////////////////////////////////////////////////////////////////////////////////////////////////////////////////////////////////////////////////wBT9wclAAAACXBIWXMAABcRAAAXEQHKJvM/AACVi0lEQVR4Xu29fU/jPBM32sqRStyUFJSYJI3E9zxf66Cj1fNXJZbdC6i0CxIg6O6yAvEiEEtLQCqorc6Mk76nM+Fp6cVeN5N323XcxBnPjMc/58xQ5XvkC+fZ/KD3REcbU1cmGtZMKb5fpq/mmUyqRT7nmqKVnOd9JcUHvSd6EhYsW09bT8WtJzj2909bcfRExGBfzJbioAh3KG7Dhb5N/6R41/WTepHLfbF65wxdJMd/mXQx/jd2+Qv4aOENPhUFvLoikNBvFA5bdWwAfPkEl0nQcHSxCLWoAC/WlxgyLYX0IR6DE+qdP2Gk9SRUXDVyuQcrLtAHvT/yQy+6Kq95a2W94i6CZQ224AnipaOvMUTHJxeYeq0cVOAVq7Ne4EQKLwpCVTjbLJc39VL2yvGpjoToNS8RRXI515EJK1GFroyXwuSisCrdFiDJUOBggWB14d9Oi44X5V9AivpQyPBSx3jmHvhx/K/QRUtVroxcrqHX/hbTj1pQV/6Tl1wCDeKSlPZzIZ+vB5BDQiMp8MIIhPhsNBpwAQse9QGvNBkB5JBXCs7WbmIJRVnPwfGv42e9je6D4+fKDrw/y7zGa7jsR8U/+AVBoVKVOH7kt7398S9IsWuZ8a/Hs8B9EEKZfPE9SM0Eyxacyf8dtncvz7zSz/h1TZLhBpY8iJKrNLJN4AN3v6fmEFeSoWo2QYYJL0SFv/B0z9FtT+Gba9i4vNgl2NXsFzgYeI5BQR3ar+OV4UAILkEynbaGKeT3P0O/Gs4Bk5Vsr64ct1SKf/GSZJGkgGjDEz5w2C+Y5ejP4wxgF2UVoP4D1NryjMHHP0E/a89Ni3rFJeQD9aCTXKaQ8VvI3+3kIoU0Jyl8s/V55MDbycvfA840SZtSWYGbXKSSJ8QmlUMuF911zVpynkYRVhJTl2kKuf9DlcSvrCT/egp93rbKyWkaJZyEeCXGoRQeUQ9rv1T+4i6piB37ElocOdR8TZInnsjXl8utCUHmkMsticL3UnKeRl+29vO+Qz0aN/wfqiTWXvKvp5BXJDlJ7RfwgSb1SnRzQ8S/HGO16N8Dqky+S1a6QFhUAwjszxNkiUBWKosCWdHWRAsqyQcnicmvkIw7l4NXspacppHmJKTMUYNKQsksLyiT9HNoB1BlCtQrbvyGxoRovoCguaErSTsSiqwkURE4yfoHJ4nJt5aSfz2FPEHLJOPazQQZ10JSL1XLJPI6ueocd1EmIZqCn1BtqRLlcudQSY7JStKJsnESopX84CRDlIWTNMnm4bhOc5pn5EW/k6sccpIuVenaq/UDupJAxZbBS3KeTiwn2W7lW7RM8vghk/SJ4SS1b1omoVTg6ztSW3nBaiGD5Mo4Rr5CNjfBHcNJGtjcULoLchL1THKSLeAkN1SKvQ9OMqBgm+QkJS2TUJUAZRJKu9F2kj4n0TIJWUna2NwQ8UBYSUhOgjLJEclJnlC7+Se5SqMPmWSIGE5io3YjSTtJIJrUS61pmeRzctV5BpmE1G6gAWSaG5BJ6jQnaVyBTEKpwGtbFx/aTZ+yyCSsxZXUXjiL68ukTMJxkiJdSaBicyowK5NowfVDu4lpZpmEtZPo5oaINwLUZ0Zkku41XUlmlknO1xjtBgXXD07SoznJJDQnqVMvNUUmIbUb4G3b3o/kPJXarEzCcxIUXGk7CXZ//4/QXOwkpExSuwaZhJRZhjlJR2s3lEzS4TnJ7ztGJjGwklDVKBIguN582Elimo/FdRaZZNRO8oPnJNdii64kvHaDdpLvJCc5YO0kHzLJgLJpN6TMIRg7CebQ027ampMwMsmwh0sKGazginYSRnC9Z2SSzL6W/wHiOcnTjHYSjpMYI5yEl0naq1xzg5yENstDJaBV4GjL57SbD5lkQFm0GxlQxrLfzTrl3WHESm9ylUkm4c3yZG8ScpImrd1cffTdDNGs2k0ik1CV4LDe8xZJpdqIdnOOVaZwSL3ibHYSUnBFmYRubor7HzJJn1iZZJP2J7Gx74aUSdBOsnmeXKTQqEzSwMZHXlOvmNVutArMcBLOTvLhTzJEWbQbyjONt5O8QCUhtZ/XyiSMcQ4ImhtWJuF7gT8srj3iZZInUuHk7SQguDY/E/4ktVfKJCC4Njciqg50PHFHcxJtJ6Eqie4FJmWSj17gIWI4yRz6bkZkEt6fpPFb7HZDkpewnKTNNjdPrEzyP6XdzKHvhrO4yt+sxbUnk8T+JJSdpBHIqqqU6UpyR+UAeVwJ9UyqwB99N0PEcpLrbbIXOJZJqGrE20mGOUmmvhtpBS7REmSTSWh/Er7v5n9HJrloVebgT0LqEsaqENeUHWWk70ZbXEl/EhRcTZeqAw1Qgc0/yUUqoUzynapnkbhgPNP+pzjJU2QYtRd7ymbYJg50MozS5AJklB4cVFmP47SY09j+xXBN2TzGcXVwlba4l8PazQ89wOIz0TzlfotCJaDeH/IJyyQ55JLlQ01LLlJoycK+G7KS/A9pN3kZmgRcTGBaqlAxzSNnA9YksEdHjmk6+EGp4qV5gimcE+fm5Ab2vXPnxtyw/j94Zd/Nk8ujkfXm5AhSmY5TvB3iJB1m3E0DOI/0bykluG14In8rgtp0fwLgJHlfEqKrHubprBC8BqpZ8gT/+3TvK6D/R68F3E4LhcG5Kqhbv3WrIAwXHYSxsIc4CFV67O7FLsR0IYXEQAjGcwjQ58pv5SE9ZjBMEKvzLGD82Lib0zDwvM3rlMWD8DOoRlXr2+/PsHgT62fPW3UgD3/7FyROIczkGkem++I4vtqc2Hs38j7f2oZSTKOyieNRP2iICsICkvDJD8ivW9bTaXKRVzrFk2UVeytssBcgYiDFOejQwaYPAvEm5GpSSfS4G1+Kg2Jx68k6EGNrcauo07ek2La2ipgIlmSPQDwWrHGKgsD4McKEFmyyClUbyrwF99F3EhDaO4ei6RxUfRsCNNrO+CJEfT515KK1P33J95Gf/gJC/BEg/Hg03sIFLPvCjJY8C75qpNPwGlP0aS05Rl6o61GSQ3Sl9yPkhdX8RbMvHCMn8VWMnzRBRQzFF3ih7uD1xUGQLl71rrgtdAqotikZxCkgj11MIYv9JHFmfZK795Cg1Wrdt1oXk4vvQwT+r1mpVZV3TdGU6avc+WvgLXxlfbZznUbbNYWUd/AI78SdlA5oGEZQVPCwIEVgdxqdjt5wjwuuuRLUIx/iN+12rtNp/4wT9AnS2dri2u/gQ+1GYXMD7U3M2ROCq8+4CxD0pmUFAVxCA/Q5DoW2CNLADpqbABskv/gNriF6eMPYz3DUDVJLmBgQ/xAi9G/jTLyz7n7y79+WQHz2yvquk/sr+CqTZO+eWtKJ4v42w+2VH+hKa6F2UIE2SH31pvbI2V5YUJ+i6TKiEcArHeUk5Fjgtid9n+7AWxP7o2LpuAjbjg7y+9KZ7r2GxrRFkB9SFoiVS+kvprLOSvukH5juBRaUfdP4LOQqFR8rvf0ryI/su8mtgoIbrFBDxj2hirQKHAlf3HyZrrygMW0R5DuUPec8uhF/h1jS2vqSlDmNjLjvhjKWrc7XMy13LYRpU4aU3JWQR6S5DS0pnx4Iu3z0NB+5lCM/pOpywy7/JdaYC0F28Okvn7S4Mmb5uBd4ZAQf2XeD3vJlEnriZxZ/Et5VYBFEVxJD6wp/A7W25jCCj+A0r+0FzmVxX+TxSZhhnsX3wEnsv8YY45OcJBPSESljxPgkPYsrL5O02UqiPdNI98VO1OzS/iTFRckkXCX5O2qJ/8T3AtOVgOYk/xfe8kVqsBcQ6wgNMgnjT7IowZXkJB3X+0uM/y1BOkKz3vK13xyqwLA/STLuhuAD/Ai+zjzG3SzITkJWElCCnb+Ek2zzMsk18WW/IPpicp5Go6gCuheYk0l4b3mmueE9096F4ApsFh/vX0A0J4l9XCk7SA1U1lUSMw21m5FeYE4mYTiJriSEf37smcZwkgUJrqRMkjt3/xZOIjJoN8RLBZnktagCpMUVOMk2JeMAsdpNBlSBBVWSkHq4CfbxX0A+yUkSH1daBW5SI/hGZZLYW54ZC8xwEsMT8timWEkbkY7eBSdZZrSbkY7390u0TDL7WOAUpKMu5aHaRlQBEp8kB1WgQgKL85zkXVhcDS/UHdrvn7LIJDS2fLO+SnzWKUhHpEwC2g2DKgDNja9I8D0eEXpRgusZKZOseH/JwA2/mEEmIZqbUtCkOclrZRJEFSDN8kYkWsqi8tCI0ByqwCKIHqzwsxb9JX03jJ0kHgtMcRJsbsj4YU6SCZ+EN8sXwmuqD5DFcX0f2k3tcwifzN9AmWSSGUbw1UbG3fB2EqgkvJ0EBNfkPJ2gkjA4rguqJOFDcsc0WsGhCH8F0Zwk2wg+Sj6I+2762g07S0Uj4OCwMqIKkJhp78KY9uevGbbhF8nmZmZOMqrdaJmExnFdBcGVlEl4OwlyElpwfR+9wP1JCd87Zeq7oTgJVBLK4pqCKtClZqnI1HfDoC+yfTfvoxe4BCrw3+G+OA87CcVpUvxJSE6SyZ+ERYSu0yrw3rvwcc0ZS3+JWb5FNjeJnYTqBb6GV0b23QxbXDMhQmfo4KN6kyCPqzvGTrIo7Ya2k0Br/pdUktn7bkiZJM2fhHzFWEm4vps6PVj4HfXdMJXkOzycv4CYvpvYr4yrJK+wk8BTmbHvBmQSdUNiIbVZbPl30XeTs9f+Ev0mi0xCcgqUSTJ7pv3E5ov2J1kV24x2E4mqDKlawnOSg/fASYzNMJmj/70Trd3EVo6+2JlC7d90c5Movb2rVeFf0ONugJNQXrdAnmjluyaVB2snWdB4F8bHNZmh//2TH3vLG/EzHwUoMUquxic5tOHcsBHGZGxfQnwSGdglo6Zn6cYfjuxLrlkd5kVuYPmKw3HdTE6nUCTy+d0NQgnmPdPeBSdx1/sD8t85XaDgarjBJjzUTnToOGZv+X5jnjhov1ZPcYCGGzGPNo424vN4sarqAK6/9wOS5ej7DYSZzgE8iT6qQM6ILlXhGSrVNLKPpfhcSy5SyV6FSqKcf5LLFKpt1tWGm1yk0eaCRuH60CpOp6W/xuLaEp4B7EDg3wGugHAmPeqhi7R8OMErDNDhsCVnmCJGOEnC+5tOXFCn/n1+fzB5tO2Fatc6DgLz+Ntx2hZYSoa/gmPz2/GzmbJ+O/6GXNoX5vGvY8jlF/xqeNNBX7t+0VwN0unwd7AoP4596WCB4K8cPo/sITAI/ha/tHz+vnsWeKZ1qpbhxb1Vv1dfqml4lmpd7EAtAkLsm/FNKd/3q1jNksvJvbrFUmp0HgwY3zS18juqILtpVCgUpFoU5oOPxUwpJR5ihKC/g3wluwU/v78Dz++NSt3qowroDj4gX9ULUkq9dQdHCW8QwS7yp/Am9dXYHg/AvCDFLZzgL4d+HSeThUW19PDkYriTVNLMyteFjks3tMEKpVWIKeBTedTVbpWKxxQ+mQOk6M7xrU7/uOCNivpdXchkvdNLvIp6wfcLeC0GCZIVAwU8ivx9X7vJoZEe6oAVlD3vt+eVkw3OEfWiDAuij5yGGN9DwhjZwwGFaVUJ8DQJxRziI+RwHep7vD3dWsFVcuMJijwcwwmNIhStV7phgpLGkFvisvcnJuhqDdreohkllyl0VV61CpDDlAyAIMVidCgZemv6hnhPLz7HCzi5KgdhoeBcxw8L/k6SAJNionIMStPXbrRCnD89COxO2zDOUXwb2cEa1Ftqe9U2zjtw8fNcr4bxQ5/H6Tzhn4pfoGCdxz/BQIiMT4y24YWF1iLakx3H/dk4b7Qnt1ync77kSB8FVyi5cZ4U74fexwU9N9yznXwe/TBhScvnZ8d2ZBiddyZi4i3X+WnYpoQc2qm/T1LoR/7mBCpuowN3NfCeRkMX6Ccc8PxnLWjWAzhr/8x1jAYkaHQwHfzDn3jVsZ+hkvRlkg5yEsQfSa5TKBAyvKZg33MeIpgQuqWtudGb04XaoNRs0ONk9SsFKGyjh6tFKcklRyxTOcBdbuqM6b+zkEpywVpcyfhDrCT9FKt1P69+UR39q2Kb8RYpC6i2yXkqddaspOxvSjskOj1iwRbIXmDbgS+GBOQ2nCZTBQzzjswBUvxeRCW5p5GMfguxSfYCF/IXzb5MEt0IX5JDJgJ6Omsgj+4IAHpYiB1EbdCVxIZKQiEdlTxH7m8RgExQjQRXSZz6Iz19gO48e3uiJ4fGscBUJcHmZoCZZri/CoocdxOIJ8bi6gl5SPnCQ1W0FmB2v2A4ScP+pEgf15wdWb6gOqGguWE5iXxkOMn1QmQS0lmQ7wWGMg71/hi/u9wwT6YX+Jx1X2xH20nR35TUCdnoQXOjyFdsuIfCJ9lmzZGcR8oliLbJeTotipMwPq516suvYT/ygJPkGuW6ol4xcJIt3p+EnqWiES1EJlGMTGKvK1ImqQVPKn8QEV9YybljOUmd4ySr9aS8b0qcjyuJT6I5Sb3nmQYy/5GiITrZEXwNj5s5qx1tLUIFVuQUBjwn+QetA4x2w3ESA5Xk5DydNEbqm9M9LXMw2o32lh9wksgRLW7cDXk/IGhuSP1oUZxkl+EkK2d0JbHPUAUmZZINXrthZZLfzaS8b0o0ZtpqnRZstWdaXyYJ5D6NdJTzKk5ENjedLDLJIvxFOO1mBbQb6hW7IRrTqAaptN5kOEltg+Ukh4sQXPcZmaRJKqS1EU7SxipDe6ateB79XFC7eR8yCTn3FnCKsFChQHJXnFPGTpJBJjliZZJFWVxJ7UWIz8Qre9EyyWDcDVQZ2jPNsGmoX93c0JyksyBOwmg3wEm+Uq94JawynITXbl5u/hLtZjCqJoU0LFifk+gZxhlOEhFI9ZpYmaSztxBOcnrDcJKvtHazgp5pjEwyB+3mt1yEFE/KJDgWeJUanKWx5fvVyEQJhfKWz3nL60ukTHIOzQ3NSRY01ndW7SbmJFSK0jrLSXjt5nARnGT/jh0LTGk/2KU3JJNwnKSB3vJ0ewOchJvNcysp+5sSaydhBFfgNBwnueG1m+ZfIJNwY4G1v31fJskym+cdM4KvwYL9dqKnpOhvShwnWWE4ibuMKjBluOftJKDdVP4SmSSzdqNlEmYscJ2BngBO0qQHjOvZOt+eODsJchLqBeqhCJydhB7elUW7WYjF9aJJajerdVK7Ge27aaBMQo4F5lEFeHySNg66eHvi7SRdurlBb3nOTsJUxPei3dzfeSRwXgbMtIHF9ZmVSX5nANbj+25wjr23JtZOAtoNVUlWYpkkuUqjktO01si/mkm7Scr7piQ4mYQSNBHH9X5gJ8FqTdpJzg85TsL33bwTOwk6HZGVRGs3D8QXCDKJXPYoN733ot1kkEkoFfi1FtdM0BO0nST3LuwkDftMkS8wsbgSVcC4VD7kQaXgtZvF+JOQgqa2k5DazbBMwqMvNrLIJOwsFe/CTrJSmbXv5gWrkaCcCTJoN2ioenPKYCdJztMoRbshOQkPPcHLJLl34k/CyCS2g81NRDzcGB6G9OnitZvFcJI6JZO8/G7Wac805B09maSh5+Aj7SSrQpjkNIwdViZpvA9OYnN2Epx5m+QkBlYjEmXohfVMAzFwEWb5u1n8SYxfamiGcd7imtusM+gjvEzSWQwnOaU5SYOrJBrH1Yqoh4tISOKKeBgZOMmitBuilKXfTUFhqsXzAvdkkmSWCuIVdz5L3yf987G5oTnJovpuSO2mYV9tcdoNayc5wkpCCq6cTGIsLQRS+J7CTDNc0NKOXdeekuQlQo45ykkU1WsMVQBSkDJHJJrUlAdADwuSSSh+hgMJTxmZBDkJleJcyyQkypApHqkcOouaVlYSjs7uiajeivDsKN07LZ73Z3+ACI1i7PShVcB5jVWsRr+IbxQbuKD2Q6cGao98Z+0G5uEtqJL8k2s0frYbDSM3vsI/r+xeaBAbuDqHazwZWRuu5iTQsnZykImRsrO1dgOPttGZuAMkyDV+2I60QPuBv52206b/RUgkwEmQuaeuP+wb1cq38n5LS/rjY1FzbXdd87qBxRXFWIX4JAFskyuQRh+xTH0+Fhuvh2dKDccjIEly+uv48BkvnYU0w764DA6fj83j52/Jav46NgPzGQsRLGMZhHOIV3FMf4W0gXn4rPFJZBjjqiBqyfhZoLmACiEt5Nq7Ca76JsewM7eVDPEW+j7DO0gFOTiLmugeX8ngH8YPAQvx7fj4pN9JUnAQXwYKBpFw1Bg035K3dT+QSYK6n79QBURfSFlwV21d5FvV3lXK0lUXCJfRi5diODOEYZCIZJCFfIIQqjk5nUKti124Xf1OiDvcw7GOOywA7hDx4b6HThHH9M57ybCUGjgCojEf2DAyOcUUyAZ8CYFAGA6hkD6O04FSwbPCE/2DkZ0OlviRtpISTyF8FDOTX4hLmZS8R3jVBCkzfpgKLmHVO50uKSPGtwZjgZfOEpAh+PfxOrwlIQklV2MbHoD2k/P9woGo6jDc+dIKrWbWv62EVbFS14rYgS8Q4sfC+2vFEuo+zgEvHnVwHKFPwzg+n7+FPHrRISYZpH3CulydKMNgV7G6UAq/iZdwFf8wzqSfqODH/wIih3cQhGkfnxBzpopPRec3uVYO5oP6pJ98TJDvgPRN4B4Q37/s31v/JzjoMgww0+ylG2hw5ki+dY3SXULqzIuuPg2uSfJF4EZLe18iN/ryEH3ZW+qt0dKXb+ICs14aBA6vkGAvQA2qfhxF5SiVzLpm9NJMricp2IZHI6bHR5GeXFpeTrkDEkjHdSqHQOcAKYaLP7xG84FguOg6V/Edl+LDCHmO7F5iGZLrcfJG8ElyuZ+gvfiFQfswsSQ4RsNBI4uMkY58hRfAzQPDPZOIeoRXFtr1okzwqBe+vJwuHv959PN+SNlBVj7B10FYStwb6bf8LuE0VPsGIgfZC2yYEvtukqs0ghSkCmxALWkdUIauOUFTkHYQHEx1nZynUYzjOkjR9oQfBsFvlDuvj0fW4DpYvdaC6+7js06B4aP74Ho1QCQj30pS/LZzxhocIR5SXOFA8prGQuKotf2LMOy6FagkpEV1pQKyGpGDEZlNH/jEdGv0DzcQPqkCG05XOEvT74FKcp0elO6uWoq02ebMeVSSe9Ki2vktxVVynkZ6lOGQP33Hk8pcMQyjdm4gEue5huOM9xhQC6D9Eod2P7CmkyV7/E3NE61qXeehA+EeneQ0RqP9aZSfeJne/0oZ/7GS3DNGdXlGWUtBtQsV6XfWiFEFiDxqTp1zBDCbDFKHbUp69Nx8OgDpEXzAST4TnCaeF7iPT5IzPFmg5gf/EYiCFVDv74cnVPHIJfqLcllQBaokn3AtUOxJnCL3Ud5QOaBFlba4GlccPsmLIxn3RewFpmy2WI3k0xrVuYbOgjPT/Uw+rqPY8tjcQCUhqkDutxDHNvWFItIR8JHkIo06exl8XOnGxAWBb5/jJFwv8BnjvmjeXeS3KEcA22nSM+Zk6Ls5PwZOQr3A57mMy6FH8K0KSc0wHvuTDHGS35KcPBp9XGlsee3jSpvls3AS2o0ZK0mLxCtzLTmjP0lpE+Qvi+IkJUcKJyKN/1CNuAZJkoLrfDjJHPxJhjgJNDfqF8UGsviTsI7QWxk4yTrJSUAm2SdZ/Z+KJKcXAD7A+JPk7DLKJBQbvuz6yokI9LAMPq7ISaivfD4yCelPUrtu1jdJR2mUSfr4JLkG09yAtnRAVxKDrSSZxt1UM3AS6hW7FU4m4VwFDNezfNJ98cVRp+KGzIP3cX0GmYSqiDG07qw0EycZm4MPmxu6jxfzI/4TEIsqkFvK0MHHc5J7rpLQnKSB425IlyJQ91vbpHazIcXlHlXODPgkyEmIx6XH4c5O9LgbFuloRLv56Zos0tHMzU0mzzT/hvJC3wNO4q9zlYTkJLZnMU5HaOu0HoiHW1qXIanGZfFxNeV2mXqBc+EkDD7J8atkkiVT3PKVhFRutNMR7S2fxTPNp5ubR2huyFfMySR2UFHMfDchVGVm3I1YpkA+4fFnwSehtZv5cBJ6Dj7Wx3VEuwnq94yPKyuT8N7yRiZOQvqVoUzic9oNOYLPdWTe/0RWI0e1aM80m7WTGBusdnMsn65omWQeKjDNSb69RiYBpT2fJ9EXc6sZZBJOcM0y7obhJFhJOE5CjuDDmX2qtEziORJkEuKvzAXHlZFJ9Fc8O80kk8QW155208AqQ3KSTDOMs9AT2WSSJHUaZeAkj5IcnNVAmYREOsrVyhW/SOE5l1hOUuLtJM8gk5Cc5O3tJHqYZ3KeRnoEX5+TxD6uJB/IIrg2SUtLNm95XibhJArW4vqJRjrSKi499CoDJ8kkkxCPCypR8kRmIlIm4cfdDMsksbf8bwL0m5dJdHPDCK6LkEkqcoN+gSuhYtBFbMcXD4SUzuOTZLCToHZDyQtz4STAByhudVi/o17qmHYTVxmi0kElyTAWOKAmdM2GvshwEnQVYDhJl7S0QBX4WuAmB0BOQj1cdpaKmimyyCSUWX4u2s0F2wvMIh31ZZJzjXREYqaxzc05qwJnwnHlZJIWz0kYs7zLc5Kvt2KJeHi2w+G4vjisneRZiiuSk8xDu+HwSV6j3fAj+PQwz2mjeGJiVeA5cJI9lpOgnYTkJBpVgJRJ7IewSnKSuaAvokxCyANzsrhy+CQyu8U1kUmoShI0FTMYmFWB22sZgPUyyCQhnYLjJFwvMKjA3RaHdMTLJDyqACnkzanvhvUnIcswIpP8YDlJ47doXUhSe8kguFo8B51VJmE5SQZUATTLU303PPpizazzlWQRnmkcPgnfE/0K7UaLtlWTuGOHHQucCZ8ki0xCvaBMMgn5it0KlJLuu+ERoXlOwnqmzYOTsP4k5Hw3ugyvsJMAJ4EU3yhOATIJbUxr72VpbmhOYu3z2g0nkzgqpLSbhJMkV2mURSbJpN0QHilzkklIfxKoJJL2J0He0dNuYqQjWiaBMhfY5oasJI2rYlJ0grLYSWaTSThOYgeWYipJFkRocpIDeAFocaVe4PM8OAnjT/KqXuAM2PIaVcCkXg+LdJTRx5XmJLydhJVJGH+Shl2u+NuUxfXlpkmq4fD4QbuhUAfwK6W1mzn13ZDaDasCYxn6MonGcaX7bjydnq5GDNJRJh9X/4jkEyi40pwk5D3TCqR+lDP2Qr9IVUTQXR4poRNSXEp63A02NweU0/C8LK6k9nItus+EXcPAyUsG2g02gF0KHDiWSZ7pSsI0N7mHmb3lV1hOsgKCK/mVN3AOPrIKrJ3J1hbV3EAVKFiHVDlBJmHG3QDzJrvVIX4urgIBZVFdFb68mV7OMZkEG8CC+Yd4x1q0dVwjd26kPB3Dtt1Aysu0HGqJrb5tB32wg+nkh1HNnkoeVLP9SpRcpZFndUMq3l5Zs5TlJRdptIaDFZ+oFHthteUXg+QqjR5Caf1eSS5S6cHpisBNLlLoYT5ISNIkSuFeyvy+NJeSywnSAOp9TtJATuJbJsEhvSboFcKMjBVvcq75dhQcbVSUejIno9zPCTjOyio+fY78u/XvR+YRrCmLGUI58zK8OTq60WkmV0dWxTImHllP4Be4xSl8GcKVc+RAjN6OnJuTZDk6Wkb4g27YC4TfwOnwYt5ofBJrKGh8cYQqPH4/usFzyGNyf7SxdQs5QGlSo2EvqvEDmYla1QPn6Cb1Hg4UzoJ7+MKBh5G2wL+4RRlDvz3kK/DwL3xxPIWFthMcOF9cup4Vt8fAxvqra8qq8i/yO/UJJmwHBxXtwGN4luJbG7hHValTXG/HNghUpxqfBE+nrX6r5WPC0VVTARY4v/XvIQVe6DAIwnM40YdCjKLiY5I4TS+mv6hT+KtQS8bDBwumaMHvh8NGlzgFngyHDi+7+LAgkb8/dYUEHLXg300rBjwNyAIeRqGblGR83YXH3eckuegMP46WML14zPg4eXrAOJB0wuqpZf6+DlZ1BO5Xr81eO+KLwBuloHKrluFYxiFP/xb59UIrr+qnySXQhbSK8J20CoX9/KkoDtF2PS5nq1DcgsvCRb4grDgKyYpBbiDPQhIyQVt1TKFkcehnYyR2MQc5cuMRsjSCyb7s4ZpM0qPV1JA+NJH3EN3dKtwhuZwk0W3l7wfjbowlNK75KoHFORDiaXv4IITUBdpXsuD7UsPhQKTeA8lqr1YjhFBTyGRpIl4OfNmYHk6SNAuni63nE6E+HQ6qaesucPc8yxfPplSh97D3ECXLnvsZhGNIIc0vew970ZGUTtndW9pbeoh30bGegwTiITGETCzuF0QfaYkgcpMsMXTk7OG6AkWBHNy99ASRqyEYuieR67oPsEysey5663J0IR24x2T2+gzuIXUZ4BwD4uDB/sFzoLkZYKZBY3B3oe7gK3jaEgdPsG4JKzmI4vbTgf5+WgpeNlSw4rYlLAyExYKDtV2E+qK/sIv8PWz7sE82ZMwtPNOQRzxdKKh0kFu/Ao5QfUfjGMXRcarR9Une+kqOBQvTXdoIvRUvxEuEeRJocKt9tpyHL2YFdLJOA1YgPFnBuuTLs6iRazcaXxwHWtdODuNysLWhbRU78AWCEN/WYXHMYN9oQBO7W9XDuwwdgFnHW7zP/ahB2+sjfCYEJAlGk4J+hKJTVIOzxvnY2vnRabdzP39nAEPSQ6FGs9dncI5SRh0U0g4mwDSja67zI/Zx7Tc3UEnq1cp13EKkkW4sqmGcYlPvR6jsQbVMCjYT+Vu/MDNvzbsqj66eF3lH9RaKzxidRhBqClUMMPEQlV3Dfohsw47g4uqbgBwQXeSHGy0Z9t7VmBilKwl8YbGiVovGB/0abvCk4hymEKQ4YAaArUAtKdI+rnXgAohmOZU8fvrpe8Zgx/QCf4MnMcRJ/hx2C99sqLU/znNGzmj/xEPnB2i8eNn4AZXOB62vBt9W7mfuJ4TBAWr0D6Ohz6HCe2Ies9ngcAf8X40fjQ7eCS56e/iM0cc1H7rneJVC8N7iDr7RaP068dPBnA2oBD2TOUY0YBkh24T2xLoaPNyJF2U7MqSN7rYpGTsJOh2RvcCmsCiAGSAP5UiGSNMVogoM+MQkYS/wYL6b3IMj/AGCWhp5ohtOBXrVNJ95saqk6V+b5UlzG/q4ksXM2aEkAbWM6EjsM0hHgjbYIR9gnK3RLE8N27ChklBlAPJiOZEk1p+E7OBDQXWACH0NlZLuu1kVIqBcCXKdKEPF5okZCxxyFtcMqAJntMU111kJfdJb3r6RdA4oUfCeadscJ6FzgO82eWbT6Z6dzZPEltcW114liWfOmm0OvixlzkDAJ4hixx18dBfgrPgkUAmcnaeZZ/PkR/DRFTEDJ2lm4CTcLBWUN7090neT0303JCdhK8mcJiqZRy8w+XAb6JlGv8DSzS3ZFJQ2+HmBZx7B9zwPTsLJJNxsnshJ+hbXXyjQ0/4kXCUBwTUp2EzEw2GxY4GZXmBuDj7kJD6JmVZbbzJN2ovDui+a9Fjgmikr9D1AJmE1hXtmyAQ9m2fs49pPgZxk1hF8c5JJZuQkc5BJoJKckk1BlrHAd1m85YkHXgJOQou+mbQbcgADP8M4VIu+PhPzFWYEHz9zVlKwmYjxJ9GVhJZaaFQBSMHLJOtV8UC9QEdaHjm+JAM+CTsWWIqAGcPCc5KLO0omeYGXSn35NdRu6iOchPOWV3WHaqjfCScBmYSdF5ieYRxS3OySQLyGI5U4pkqRAZ+EkUlKx/UqiUmMnIQXAkmZBGfzpGSMmHf0OckvTrsBznPfapL+9AuTSWhOwqAKQIpltrlZ97f3yOZGXXCoaqx2g+iLyXkaGWa31SLtpbnfPCfJYCehnLFHZJIfqOtk8XElKsm87CRvL5MwjtCQAscCJ+dpZJg78E0xVg6Gk2jPNCqHX6zCuclzEtpOwiEd1UZ8XDvoK0dyntgz7ddfwEkqnEzCIUJrTiIoodHegG9qi5zKMdO4G6r11j6u9Cu5bs7ISV4OoaIm52k0hr745Ub46pAoUezjSnGSxcgkPD4Jg3QEr/grh0+iOQn1BZ4UlPXsElW1NjuOK+KTcJ7nM2o3uoOPKsMI0lGuFDkc+iI0gGSZQbuZRwdf9YS3uDKchJNJQho2XHMS2k7iyCcSZz+LTJIF6YgeVIkDGBjiEaHJeJBJLpp9TlK6+qQK5KgZT1RlSE2FC5xkARbXLPgkjFk+g53k6JZEFYAqwNgDMqAKsBZXVibJwkloROhASNpOAhW12ecka6HcJzlJJxB11k4yD06yS75ijePKcRJGcM1kJymS0BOOUtIh/UXmod1wnCTD9NP3MyFCj47gizv4yGoL+TH4JO+j7yYLqkAGO8kdKZaaWgUmnkbNbM5occ0gk2xm4CS0dsPKJMN9NzmcL4/RbgQOmCBSNLLYdnjKgL7IWVw5TpJBBaatILZTkMse5TX2wvcCI7Y8VUl4TnKdyTONquzH9SG/s0kaw3HVCi5VbUG78ZVFVX2QSebR3Myq3WTgJA5bSU6q5MxZ2p5KPYqsFleiIs5Ju6F7gYGT0KgCWIaeTMLjuJ4HTVUkOYkxJ06SwZ9kRpmE5yTrO09LJCfh7pFpvpvtMvU4s2g3WewkTCXJLpPEwBKMnYSVSRbBSeah3UAlodEXawwnydILzHKS2WUS7453OpK051mWvpu+THJ1JvfJEv0M7piZs+Ylk8yq3fCYaazFteTsCgbpSBzTKrCTwemIme+G5yR6ABBJ92KVrATASYgyjFlcjQi0OspOwjsdtRfCSXjtZmZ8klxDyyTJRRoZTtcvOFQK0G645oazk2DHPMNJmvxXKfp8IIW0Pwkhfo/PnAXcj7STgHbDIELPi5Pw/iTcbJ5MJVkJuyE5EYm9iTNnJRdpZMSAWQSvAe2Gm83zWW5TGpT2VKcVziyGKVomQWC95DyNxmfzNK7qpMWVR4SeGychKwnIJMwcfJyPa672iRZcjc9h4YLGJ0GLAf14jzj3xQ4nk/CcpIzwBwzRMsnvZgbPtAEvMjalIufiBM5ED7tpXM2Hk4SUTxhykvtKZGsIk1JKQsOzumdRCeNx0ymMOHXy4ZeiLWVFdgkTwG5iLUWPugrE90ijkhueIiNPLtPIXZcHnm3EhUjZaraL+CT6MpUM1wFO0j12SxMFTFbDzjAH+b4E2QmyG7t9fF+4h5THeDaFXKeavxgZCwzNDWHBBd6Whj4yTNHWPDjJvcSxt9PoTwgfj6w4QOuOOZnQ9sJCVYY3Jxi/7hx5IPg1vhytr687h3HhDc8p+NJybiB6eL2JT5ybI42BUnhchzzi8LHVMUM0UCgLTsei4tVxjs7uqgULSzmdxKk60PdIpZtPiA1yKzC3aWRVee1GiSRxGq0XqwrugEW+WV9fXu6t8Lhgc26Wn3axydPPDQkriblSezFqL7WXEuzHNjuQ+y1x/A9cGbYxudZe7IAXtrOQr8IHvCXeeGIt46Sxvr9bxaWwHhkGpBtsIE3s5lt+dVf5O6fVXcgqMmp7joKQqoTCG6XSWqguIAeM3rndgV11BxJXd3f18RbD8dG3fExQTZLp4OSIB83mIVMM6GXVP9HZ+JCDgkLG687t8NGH4u36/j2CoMQ/0r+DFQqhU2Eg3gP/CmY2seE/VH4Wzu2fQoHU7s7pxFJVu37rAvKDu576SsmmjFfEbel2sfRQxvuheSyMK3l7YD4H5i9YcD++IVaCb5nP357h8vjb8WAfmN+Of8EWdufBSZBFnv36hnnDrcbWX84IkFjzTJcAS/RsHuJBc4EhkuHhL41LBIUvmlDWwzM5+mjnAUz21tQr4/hxnuSL5YTOQrGrilbyJC+GZRJP5FWh3qwjuMhglxyEkAX4vu6VRMwRCMaEsGA0JmhCUA8hiKA8pNgnkmA8fD7V7l2Sty7B0Emzq1PkW3rxq3FkLxaWJB7oopW/b+37ECZVnFpBllLoUupoCOvvWxd4TLaE+tE6aOjY+xYw6B4DR07wV/Fb1PnFoVgADMcjPMjeXTA2iblP4jEIWVnvJhf3Ood92ODsvpVcz5Eww7wvzSU3Xty1UB4EwQE8EyhEa0gm+amdD1XTEmIblnh30Dsgqgc83FZBX8Ba3E5WvW0/bT+JA4noPUpADtNW/Umr+lYRsrDE5B7jW0oWi0neOuu4DHjTA/F0h5xeQWbW0xZC9cTFw0RPOh4OiJXjwz22njTWCsZYQieHswMhEYoMy7BVPMA0cG+dEhPgztqq6xzgHvo3sLfEgb7fFlzFR6xpUP8sOMcAyAhOEKsFI3WmBV/JLWtbZ6nvA0d9BUdMU9yWvi97GfZ+h8AvcQYxoJK+R1w6LM6gtEXEOsoAT8ISlAFuDWUf9nzwnGfXDqwtgVx3RCaBSuJbXhRdldfW4p0Hy9ra2lX5Cs5xslwVelflOBji4xW2CA+R53QhhxByWIpSaSlCcRzusZcEjBHGA5+xvF6+kGlyk+gK7gm3jhB3yy8G8Q90PAQnqXWZo0DARyeSFFFUhtDkVGfkmYhwsvUrCUuhpQDrqjD131jb6/16iNxrUMTz8hLKM41AfhbPyXmfRrLyQlU/Ko8/in6SJYiHB+7A45xKIGslr/r/nuRlcsthA7Ltup2c+wXLmL8f7ieGSnJq4SwToFdryI5Ev07OGugrN/BxbSSkT2AHadpl4avePBWobo5veg4+JRCfvg3pNW5QA/FO8KhvgmDAvvNPnCsGxUu805RYXNu5dgPzwLheqiSdG+768gZS4F1iGwAmhTPMEvSjI/iEwyUdB6XqQE5xQn2NP7CPoZagt4jOFXeIaAQ5wAGLDVr0dxDtzrQxLc4HI3UqfQ0hhikrV7pA/XCdm/4BFgZtEAJ1r/i3sINHoVPo30P8kJ0EA3SaNuSEv8ajfmUzU2Kr0e+nT/HTbjSMACrqiEwi/cfr6abM9ip85SS2fAeU5DCwCTW6HQnfenanp0BX6gze8stk302oDr5TKETAr6rkvMDGHtSSA8oUVrop1J2I6lZBVAFmCrdjuU333bAWV3wlM5IvqA65Gg4RHxgN2ytBV5G9vIi9pKipTHJXQporlD2uEQnlUNO3R6Dg8hZXuu9mpSI/UVOj5c6XwsIjafDpuI7PjLuRwHSJP4IpZu0FztB3MwfrJe2ZpsvQl0ncY8uX19TfXq1DJXkmvh4QfQWZAw7fUr+oyVCuUOLgO/g4VIFLuu8GO/jISpIrOb5Fz8HXlQ62FVMpA6rAMY1PojkJ4wjNe6axRH4Muhe4D2IDlZJDOvLuEFicrtikG5Rubuh5LiKsAjTSUSyTJFdphJ5pVCWCV8z03UCKjR36BX5Xvh9DGE+hDJyE6QXG+W4uuA6+mQXXe5qb6V7g/lhg1sfVCLgB4212ejXkJGQlsU2rupuBk1Cv2H3kUQUyjLshkY5qGnOdqka1E8GP4GO85WWVhHjM5C3PUUtQ4H02ToM0kEmu5QXDSa6FvKH9Or0mM70aCKZ0JTHcQHKNCcdJso3go1/g/0FOQvyVFxM7+MjWnOUk5+y4G1E/Ih2b5sFJ4F+QQy6wuRl4plW6tJTURn8SQhjPykkoqQZxqeXtrNrNfEbwkdpNwkmSqzTK4C1v1kleZJs4AIx6FrnN2TmJL9YI2SsewdfnJKWyQ4/gQ8802n1RyyTkDOPISWiXog3h85ykxcokZBXQ8wIzlQQ902iZBL9B4nHVZsdMO5ZVSQPCzIeTUI2m9icZ7QWmOEkHITpJR+gOTh7NcZICOeR8qaKyjAWmZRKrznmmZUBf3BWUql7iOYkzB5kEXxD1uLw5TJtED2dFUXXE4lonfVxBJpl98mhOJil5n5RPShQ47ob2TENveaYKsDKJ9pZPztMo5iTUwOh5jAUGzYKGsZuPnYQqA3KSASJ07JlGpO+sSt8XFBYSVhKymqHvGl1JGiC4VlkVuMXOC0xzkizjbnZppKMbFFypb7CWBVWAmReY5SRZkI4YokGN9bibEc+0umImdIWKTVYCnDyalEka2NxQL9DwHOAkZBWASnLPcBLOx9VeZpubTJyE+gZfso27oTzVkZPM7i3PEemp+xLjLSZX+H5oThJPL83MME4ipmiZhDGmhcrP0HfDVCMex3XWEXw8J8mAdHTMzAucQSaZvYOvJSgs2VFs+biS0HyieZGn+QCrAqN285361ziFwawj+DJoN58UMx0rN4JP2x7vKJmklm2GcaqSHGfgJPPQbog7oJ1kf7QXmEY6QvMenYIVXHXfDclJxD128BF1W4/gY2cYZzhJBvRFWibRE9U/kXpBJsy0NcqQFfcCvzEn8QU1xfW4TNLx6HE3DexNKpgUp2BnGGftJNEWNiacdkPbSTLIJGGBmSJ+BS2uyXkagUxyqtapgaCg3XCVBGUSKocMY4EzTEDAEctJXiWTrIJSToq2mWQSusGKe4FpPsHaSR7lJW1xzTAWGC2uBJ8A3UWYS5SQnoGTIGYaWc2wuWHGAs+s3dzT1h7kZmIwzLMNzQ0tk9yh4Eo9GLa50TIJxYv2QsVxkkwyCVlJ9CwVs8kkGjbcoJxWMtpJKO0mgz/J3Rv7k7zW4toOoNoWSMGUtZOgTPKN4hN2AOoNg0/S4vpuQCahOUkmOwmJ44qoAmdrVCky2ElYiysvk4AuMSPRnmkaEXrgTwKNBcdJtGcazUkkaWnRnIRsbnK1SDCNCctJUCahKwn23dCuhVzfzcul2t8lsY5esmk3RA6ZZJK39kwb8SeBa4aT5Fa1dkNwkvNM2g1dSXJ7B7RMgtrNPj1zVkVu0HwiQ9/NOjdzFhrTyC7ALDIJnUMGmWT2EfotUrtBbjY8Fhi0G/VMVts7EFyfOZmEtJO0OcEVGwtm8jTgJIx2My+ZhPrKY4trcpVGtWzaDXWPRfm4UmXQnOQ1FleUSb4RKRqeKJxFVB3Avhvan8Q1ZfWEykJrN2Ql+BNyFlc7VMwMeiVn94BKYRxpTpJcpZHxvclAk3eOJemzEjc31Ax5UEmSN/1/T/v0v0DPtCGZhNdutExCPf4r4XcrVMVEb3nSVcA1hc/7uLZIXrPCcRJoTArMxGW2yXjLx73AyVUaGcccJ2lzdhIeWnc+dpIkszQ6RztJc8ji+htkEmo8BFpcOe4HUgvFa1Bw/Uqx8egA+ERljWizsJLsW1fTFQt7UxTCK6om2t62sjwXyO4nM2y4+gmHUsMoue6a5YtgkKL2D5yuDNaVKLzFh/GASYbCB+s/UdjduoazsfChNXKUeMZbpG92hEMmu2YESXHBoPE1Az4JRy15DPdL7jFYNP3BMo7jk5B9N43YTkJVgbVi/mJng3jDnai4L9eJLo+1Iuh0Mvw8/R2jTJIvVA6ncRs3qBR8GW5O50b26teCX7CW18++3vQMZp3IDMPjvZpneq4dOMuhbClrOXTCGxw3YXvOGZzrRQN4OCF2mpwehL3QsWX9zAnvbtXBUFB/WT6DHGA7C3G8Y7juhJDlxLYOSe+gIvoihLtBjsvLsA2tGLL+hMOaZyQoAxRGl6m3JkVdh3Kg69uYTGL+KRl22lKqvWhYncKGqy8nVyD7EFLsOu6LbUCIAT8Z3iCBAV95fl85LsKE6B+NHo3SJg5Q9tVZBAHxnUeW2ovhASfJwxv0EL8kvtHwhmhnF4hwEkGOaWTUyhWVb7V8hCyRl66+cwlFoV0riJy7Mw9y0AglvrrduZVO1EFEEwQF0Quik1RPq9ixdu/vVhEkpBc1WKq7VR9aRYjTwCinsPX2u5BBdUcf/DxigyDQSFXh9dBRp/RBdbmAsCQbjPbx3nAHnZnyM+GTcISZ6yLHMC3xPU6V7CoIhP95f3edVBGoJFd1/8kxjxznRoPgjO5PEFYHMrzDC0gzSjcnuDoW8Ef/LtzoxUMQBuPROdKhFWjigFOYcTiGJBte35yYVoxwoiqOiTdCGt4jxlDMYZWFKcYJcsE6hPEhXMCPxteNoxNdhoTkmYl3NkOUAH1RkXDrIvyLAanQPMGR2/9lGlS1gW2uKnrP4WLYTrIpoVKpApJUEk5G9t3CKTz+i51+/PCiQ7oFRGzI33a7E7/HI4bGKXy81j+AHSQYZBnH4ycIpxAIWY3tC8k4eh+j9W+GFgyBeMyjhRd4jb8Z3ielRALhxtfhkBACL+Df3/q+wv/ZJ7iGT8rXSB0XiECi8UN6OcARrvHR6ng44MeP8XEKRCGZtiQgJzqLGJRk+AiimY7WF/oQZ6v3epes8yGdd3yI7+NXPM2zMW5IJtH4JK3CU4jAF2mEYBj7UuNiTCEE+Wp1qRR1rJ2Fp0pyOUF1uEdLETlUBORApggxRf5UJJfxreI/heeVuAyQw/gfjVNWrErMS5SwQkjSK2oFSV/C+ogPo1WFe4T6B6P0qNNIkDjwHhAf7+JDfKZPpL+T5IBr74hx8WmMTwIhYRypNzzADTDn0KrvQEFno3t4Upg/3jS5Bx7Cb7b9GUKxDCMyCVQSFXp7A3SR+ETvl76sIfoIxH+ZCi4SOdAUYA7xL3Roj5KgI0xRGcEngZhe0qXIBIEQMVLcJKQX18/syzcBnydID0kxcTe8AQXwBfjbfXySMdqLEFfChxyWoofeT+C3X3SpdcH2Amw3BSKYxPFxHBAeH6LI3fMe8eGZcegEQTIX8Um+we+/wDVuQEv6mATsRVfrqn6j74ARyRGLpFPsLWlAmK7jJc8C7ht9gWgsIp7DPSKnO3Pfzb28wdzjsuFzh4LAPZYQBy9a8tCyPKzdXNWhpf9cQ+QLDaCBOzhoyI52o9GJQvg4TLvRgQiI6a/9pePhPBafa/A7/aPeLs4HzkCJeGop8avUgZBhwh9jXrklR+BY4E4OUqRSZ+8ReHHoxvkOr5i/vo8b3u7UESZSlwrVF4iN/1AOYUa0LUYburSRQt8Y/x+Cl8B/gzT2t6Kf317DCySIQ9wQiMdS4d9oD/m46hiM/Nnf4d9DHNertv4VbklG8NskoNMoHcvErxyudRLYwzWe4y0Ti2tPWYT7YmhSBthBHvPpu9H/QhdA/399wD0Q6AmF6qi3vB+WCTtWx72U8lk/2Cl0JQohZUvL5aLt3co1cQ/jy5Fk/ElwKpMzMkXYtQLCVma4v6Qi8Uk6K8CNiqTFVYP9kuY2UzL9Qz+PGUTob2hMo5wJ5mFxbZH/ImdE6/Ju0Nz88CSNGdCwr0XhiEpRFgwccC6CHMgUHdeq0n03IVQS0l7Ke6atnCkan0QPzqJeYAmnfBVXxBdjXAoSeBxSZOu7oTrD3nwEH7Bfb6t+mJxDmTzZJdFFXGiqJdUFCFKNCHqMKpWwF5jsu4G7iFPGMw2aG85bnsMnYXuBaw4zw/gJiIzcVI5cB18Wf5I6NcfEPFAF9snOBSDPGprCAHuBKYtrO7LUhWJ8XDN4pp1QOeArZnqB0SxPvuIM+CRfWX8Szsf1El4gzQdmH8GXxTNtHpyEggEHGWK4knC9wHoqR3KG8UxjgeUxzUmirdt12u8MlE96SDmPT5INVYCSFxw97ia5SqNMI/jEFe8tT1aS2ccCt0hUAaAxTkJXEs3bTsk+XOQk3Ag+uhcYK0GVcXMGmYR8xZm85bkZxm9AJiGaG1sLrm89FhgeeDegH/g8tBtSJhmtJCiTUJWkEYVCLFNVH8pcZzmJH3oUo8hF1i4Ph8VhpjH+JCsZfFxpfJKEk9AySQYf1zLxFWvPNE4meWPPNKBxmYT2J7HdtSvSpQgqCTOkAuQaX1nUxwHaDQcswXESdgRfBmA921EZOAktk8yMdLQob3nyleW8g1fIJDl0tHiguADIJIzgijPiQCWh0kSMj2vMSchqlGHmLN7H1SfxSfTMWbRMspFlBB87DpeTSWZ2Otp/FSdhPdPg0QVH1GzHKJOQAJzQZFn+k0k9fZRJaImD5SQZZBIWnyTDCD6oJKRMws8LzNlJYm95WiaZublhOUk0IpOgZxqZ3oBKNSNE5xrvLb91mkEmoVPIy3+S83TitZvSuj8zqkCGiRoZOwlaXBlO8uYySSkQw3PwQXNDmcoaOHCqSo2/4weMa3wSMgVWAtpOwo4FzmAnYTHTNCehZt5GTkKiCvxF2g1Rhs5KUOmOogowYL+WahUoOwmUWR7blJtsJ2oyQyqMK1ElX3EWmaTOVBKXtbiW1qtFipMkMgmZIoudhBy2wWs3c0CEvqfH3Xji1hcDj33O4qpnKqZ9XD1RILvW+HE3tehEMmOBQxbpKIPFtcC8QG0noQxdg17gKVQzmwuwuM6l74Yqw/hsntDcUCVqBDikgkoBzc2+sqh7sphpIHTe8yP4mL4bdphnlrHA/vYeYcPIhOM6j74bWiaZQ98Ng08yhr6IFlcaM43DJ0FTGafgMjKJ6zR9hpPw2k2ly3ESh60kjhJLlAo8B+2GR4RmtZvNt+ckuqImV3DNyCRtnKWi8Ise5qlCj2IDuheYSmBEZjfLLBUMJ2HGAmfiJOKB4CTJWGBKJtlgtRtTPmUYC0x9U9ezyyS0dqNRBeqbyRU2FpnwScgUQjoRaSiBShKuEd9GeyUQjNGd77upSFKJhioAlYQeC6wtrlQVYGUS3uKa0Z+E1hTempNAGe5fgZmWw1l/OXySqjihBHZskKRDGOTs48ptFosrmYI1y2ezuFLz3fAW19INO2AckY6oipjF4jqznYSWSbQH3rCP6+8MY4ELFD4JVIGWL8k8IgtKRXCjKFStmWWSsMuY5UG7YTDTsnES2k4yM7Z8Fovr4mUSGukIJ3yj571Cl0uSD3SibeAk5el3WcMcyD7cuJKQ1YjlJNlkEhLpSFtcyRn0+JmzWO2GlUnmoN0wdhKUSYYw01C7ofFJoEQkJwGJA6SWI6LqN6KiCstEPQNOMxccV5KTZMFxRU7CWVwFUdszcJLzTDLJKslJ5oLjSgnP/1faDSWTdDxxK0PqybXXxG7FI+rAFfBP4EXEF5oNM21WTlL6Wi1SAJylGy2TEClq3zP03TzRFlf9guhKMrNnGg2xoWfzHMFMY/xJWJkEXrH8ekV9xI3ogLakII5r6605Sc5eZnxcG7Zzekc9vES7IcXOTH031FccyyTkK5lD380dxc3ieQBHMNMUiU+iZRKmzAz6YtwgbUx/hZG4YHFckZOQ1Yi1uLKeaXbZ8repasRrN9h3Q7pI1kBIP6CQD7P0Ajdn1m4uJDU9jfEN/ueQdtPG5iY5TyUNUUNWo0gMyTip5KLMsT6dg+oqQAquf3DcTUilsFk4rNKZJM1xP72KalnUK+YHZ7VNYVH3MNY+FfwiJbi20eYgA4Jb6dZ5VvLl8vT/oWedGJZJfkt16dpGr1rVXuyaXbJrvdU+hIqtNlwIgwUCxvZ2aeVQymMdPxkL+5ptr6yi9hK6pcnYeB8gtvzXJTiHAPhBvwhwGpO3BbymEkGADsOcemtCa9syxPjptPaoLCrFWkU3JslVGrkhaDfNVTe5TKGHM2n9Ts7TKFqvwj2C5CqNXORWXXygqY8KFwSEmZ26N1+SW07QgwOlHJJJjM16SziOGTdR7eiX45yc3OjVOXG+Hzk41t6/W984QqiRE9hG9+aRY6mqcEz4hQPb5B7yCEEW85vr32/gV/Cbsf2J+ahaoJSFzlF8XwyLi3B0EiOMHIVoP5KhgyH4K7x3b8PlCFLcihB+M4JLMliPnJt16csK3nQdLycWyAGa+m7oQCljlJOxIxzwE1YW/KsEGWWC1kW1sNWDXtE/GRzhcBTikBllQQkgJGWDnb4HPFD9MMYfJ+RkHhXV7J5pyEvWsVwTRcBNoKo/aB4MEEwRn8SJDCD3WKgxguT5i6raKSTXKj7p7wvqttW61VdTqKBOUdCCu+hfFcb3EI/sE0sBQUpJKbv6BAJkU97J+p0oJCkwREgZxyIVZL0p6k34Revex5/iD+7kxFrXGCZ+/Ps7KfAwvAoh5C3e41TB/SAF5FNv6gMkji/vZBX+iF/AgGbqImR1149/P8gBzvUR/gbE93PAck0s8FOEYrnYTf5eCuEDh4Iy5CNi05RV+f7+4FEMbp4s+HyhFg55pmmZA6h7ZprHwdGU1i5DqeZH6gARTzT5IgzPQiArQbHJ39fDsDIk3bfqjxj/FEffHmDysVVvMX4J5HiAF6lkQcOKKeCe6XRWQdyOnadKcj1OcB9IUUjKrO86ThZyK8QrS64n6OwRwVpmJ19UvkIJUtevobjdIcoQWlgNRvpu4kqS19/xCNzPv0St8Pqy1+jK4z2ELFwBqSUpmTpy/0QOfo8xqaM9iF5KAAmFpwEKRwgxBe0VN4j/Zz2w3ZU/KbiDK3aC8QNyv06isRLx2Nu7dgTiM+QAF3/cyQXvE4XyCe4Q3xVzgF/GWWG8vVKuaPzGJbhDEjW2riDy4ezkS/OPDfdbSVlte+lI1k39x2A3XoI/SRmGQDw7Xr2l6shs6xI4N56NEn48cYopVMcUeSoF5OGr5DSV4hyQ5QNZ8JAdgdnVRd88toKvB1NoU9WXrzoeKTFduTd1vAcxTtA2n3YuFDXBtBFY6t6XBCBwrN1QQ607zzTYr+EBTyTB/zuoWcxOQ7rJGIHehG7JtIaF2s2InaQaemtl78qD9WrNK+NS7m2RBt5R4ecILiZW3EUeYiGdVtJT4HoFKW7D4GoiIlmjK0dCG2kF5Su49iLbsB+wRJF3tdez9GLfTUsEXqQn8a9FGI+/9tw4hbF3LBVUL0L3B16yK54J60DbXS3CF6jvkE7Gxs4F409yxPTd2F6o6Nk8EY15Ztq/u6ZKGdCVxDjGj2FQzXCWChOebeen0YDlZ8fIwQJr2zAa5x1DuzsqnSIOH14hFaTwREvpCabHo2Ht/OgYP42yUM4K5D4RDWu70/55BUKGf+ZCSrwvPEEsSwd2/YcZW1yXDCgE0M8GCNlxBkaC9tJxLeABlHWh8ScskDNMoMXVJ/tVSvEIPuoVc303jRdTCo/qH0KL6+xEDmCASnL3m3KJ0KjUw9oNZ0yDMtMeJx4iHZF2rEgUvlH9yHqiRnqiejS3MUhHGbDlSaQjSOH4tCkMxwJvU5Ugg2faMTdLxXwqySpZCYTYJBy+cQ6+i+YwJ6lzRnef8Uy7EtK0ib+NlUBtUL0/S+gIQJvlM/Xd0FVg5ZPisOW5EXzISe7IXuBsI/goj3z8imcncnh2LRCS5iTYyTjCSehKsmI+KXIqE5ylohKsEJwefVxJb/lk5qzkKo1c64JHOmLwSTKhCvCzedJ8gB/B9yy36RnG51FJLsRvsiICJyFQ2V60Z9qAk7ShkpDdcx37eqtOoouUhe+To4Fx3A3ZmDRs4FfkC0ROck+nCCXp2waVZJ2rJDUny1hgUuSbD9LR7NQMqIqInISKv5at/eYIJ2HGArfdZ8o/FXIAiYLkFDjuhpwXWA8pJzlJhnE3j/OYYfyW9HFNxgKTnGQuc/DNTPdik3plqN2QrP+sqeqjMgnpmQZZrrjk00ex89aheA00NzT6IjQWDPoi6y2fAZ+E9UyzkZNQqmOs3SRXaTSHEXzz0W7qpEzyu1nfpDr2DdcUzRH0RVom4SnmJLSrdIEGp0CkI0YmgUoy6wzjPCdx/ANyGvoY6YjgJC8bGcYC8+NuZqbWHTX31kvQJKs60ARmGuMyxBBUAagk5AtCmYTiNLoS0BIHGtPoFDw+yTLnLV87uSU5ycslK5PMrt0czw6bB0T6tunmhn7p4+iLNKoAT1k4Cc5lk1ylUmRVM3ASspKw7oug3XxlqhGDKlBiOYlxw3KSY26G8blYXJseYychZ/mb4CSsTMJRtJ3P01C9ODhrnRJ+O661ywyY4GQSHHfDVIGvikNfdHbvyOaGlUkyajf/ssW1dt0Un+mXPlJJssgkiI8/nTpeETkJVQWi7RY5OAs5SZaxwKS3fGUeOK7VItXc8HaSTOiLNC+ak8WV8pLVnCQ5n0JQSa77nwuOBWYqiR155LON4F8xMklxX5LzfUIlYLQbrCTkKwbthraTNHikoxJqN9QLzGAnyaTdkDLJXCyupJcsVhLSi1ZXkuPkFNLzMkm0TgJLNND/VH0nBNPG2p0KGZkkC2ZayIy7md1O4vhFClUg8ZYnqlEti3ZzQMoLc7KTUFhJxjEIrkQZgCZkEm5AxIG8pFL8MaUiR/C10SxPq8BQCWbnJKxMwo4FxhnGqS+Q5yS8doOchOJWv+rJi56JyDkhgJNIBhH6VdjyWI226cFZJdcUcoPiJFfsNPSZcFxpTsJqN+4yb3HdJS2uCdIR9Yo3mtxY4G9dxk4C95idaE6CKnByPoXGBVd6BB8660gKfREqwZeQxgaJxGlYpurZHDgJP2A8Az7J0cycZHZUgfn03Qy94kmqQSWhXAmAJioJyUlcR/pdUjPJ5fYe5RnBSTSqwCMpuOq+G1LimJ2TZMAncXbp+W4y9AJnkEm2aU4yD5mEaW6uRf01nIRFOsL5bujmBl7QpUVaVBGfpE5VtLZr7dCcRI/go15xFpmEm++mhjJJcp5Gc+kF5i2uyXueiQTVCwycpLlJxAONyiQcIrTLzZwFZJcDqilvrAlfOJR604gObnk7CafdXJIqcCY7Cc1JeO0mAyeB5oZypQZOMg+zPGsneaVMQltcO3YguvS8Vz9rtku9P+wFXqZVYNfarfCCK8dJ6EpS4+e7ycRJrgh3HeNSzCqTzMfiytlJ6qtUL3DO+Dw2SwVrJ7EkKZPYV5+DK8YzrXtI38PNggjNcJI6Yyf5h5VJSs7OE1WNYu2GQjrKNAff0xrV3MzF4rpPcorzVYaT2F4oR7zlWTvJkkV7qD6Esr5FmtsiUaD1I+Qks2o3LPREFosrPd9NIpMQf5WXSTTSESVUzsszjbhHh2luOmuW2h9DhL7m/E9oToK9wLd0z4xQYZmQbEHNllXSbUlXEtLsvhKqCj07FzubJ47ho73lT7CSkAgmN9y8wEbQPSArIuKVzU7yZtC+G27kLsGGvmP2Q+TitPEQn4T2NteAhPF5FO5ADmM+ruTrccQt6Zz48woqyQ6lfkJz46uQ4DV/zAPfd6iJSLL4uKpC8ZBqcFZAu6FyKG2GCsRSorYn8wITKV7MukVPpsrKJPMZwefL/oTehudYmsJNe8UM8Uz6vrSsRzjDLSbQLKIk4QHOujTq46qcPT1a1cXxrGP7FdeUfl450cQQ2wFhI3p7BlVxCtk4DrelziLI4h/Ic3zDeGxMkhwgZHyzXRzY4VseXOIVhMEPh3crrme18ruQAn/SG4w7NCgX6MpS1nXqr3H3D46ty7fEpk49+NUQ2WuVXRQJk8s0isKu9Xni/sPHCJo0E690QcZX145wyOTsdHGPLw1ytPGOviYVRvAcfb/q+/mLVhzWp6o8XrspJBegX+0PcZKOJ/dFuLy8fBYuh+uhE8IODxCyvBxCKI7U9jEFxDupyxP8K18+Dgf1lnXIZD0MD/B/dy24Oovv1DvC4exr6OCI/wv5mPwI7zOywc7CHKQF0XAFBUyyifOC67OvlQLUfmXhD+CO+qe9I2YB96kU/K6lg4d/nWQB2SISC+QQYqHwh7gCxRgCj7Cux+gi24PQSRK7kAPcePj+8RFXLAtw1ac4b51sZIUnX+kNjZ+ZFPAOKOejfnaalIYLmEbSGuFhcgAbrn3d7/371n0Ld3moZPv5Vh7P/ThEUxIPx7yP0ckGSZMkOqKfINljJriLMQD0NS5+fGjFB1h1dN6/wIu8vz+2YaoY/AJLto+/8bHErX2MwWhYMQrzgAVOMRDvEh/jLPRddOqxX+OutQ9fls4BCgFLax+SwsPo0ynu8tqC0Rr/CIcIKir8EjK7hwvcMI/kqLOD8kEO/fA4uL/Cb+P/MTPhg4xpF3PWiy44/jmMv8e/DPwE1n04zcPbBg6CBYcUmGAI6UiLnf8SJZXjfZAvrEl7OHCFhIBzDL5CGQcjNxnewieQ994J7fRRVqBkmjEu4yFhWUJhPDQOuGqcEuR2QDGf1X+1eZ3UkIST6Bo3jfCWyekUmj0FxhPfJxCmwC9yOnFlACLuUd26vgoVfEL6i0pIfRpIWituABoWEiIPoHQxTiAXgVTzPgjRFZMygnAJMlcsEGkCKWUInwQCVhB8JT5L4h2Vvx+yk4B2cy+tCgi5A1k3uYhPETukJwqnEATX4fvxoQFMLkc2pMpWHWUOtdW7zdgaPkqIbymh49NJKGhEIMVogn4WFUzhYw698AkKByniRINf6+SmXbpGiPu4FDoI1IEh607HDjTekt+c6tRdu7a6cUX610keG2PmgKHL2rWQ2pWgMRzaowaq6ZDDsJ2kqc7W9lxcHvZc90Gf4QUozHDQoDcgFkcYigSh/Q0TRxplyA9R84AM9twlSPgFzvCIIV/2IrQP+VZ5D4PiCPhC95bwHA9RksMDnLsPSyNrch/EKfKta8juIV4g8gHvoksNOT4EiG2AuSV/A3/X2/Aqcr3i6fZn+AGkecCQPSw+3hOL4NpGzvYqfv0Q/ukDZoiBIzZEA/Qf1G6Op2Kc/LSjd8JL7uluSMaYFuOTDFJoVAGqQzAKCy3aJnslWlV6Ps/Igi+USOGedX3G6Uj3AlPGNDtkEaHXWbN8FlQB2l46HyvH7ETjk1yLO8oR2tCw4aOI0NdUJal5ToHuBcaZs65Jq/uSqFoB8YYNVOXpSoIWVzpFRV4ylaSivtKG+xKHT2JW8/kDshrhN/geaMjXfZLQ6Yh66TVEhB6aOYsfwWd4T4Ujkk+ElcAmekZzepYKEn3eiA74vpsWiS6CvcD05NErZ4UK3Qtcwl5gtu+GnO/m11xchmanWOaYQsZqXQz4xCQZnnXrj/bdML3AP664XuDPdJ+JNsvXj0hfgaXizD6ubC/wSqVAgOYh2c4uOd9NhnmB5+OhOjPtN2l/Enos8E90IhrSbowM3vJWl+zDNWoD1PF0irZarTrpL896pi1kBJ/2TKMkDrYXuDQfb5DZ6Y6USRCfhHpl57XP2/XXoAp01oCTkN7ykbdKDt9qYwcfPTgrsm4zzHdDVpJ5oApk80xLrtLovXCSPIl0hDIJhU8CVB73caUrCbxAtUFwgc7DmZQWOW0Sugqssd7yZBXIwEmy4JPQKVY47Yb3J3knnOSCRhW4Fk3ym83l1sbcFxmZpBNt05wEbbbcBGw0ZhpWRBpVQCMd0fgkj7yPK+t0tO6TukstRhVIrtJIg3i+A7q/ox2bOB/XxqiPKzebJ1QSYOREikaMdES8QOQkJOparsF7pu1n4CR0JbFDHp+E1m404Byt3bwXmYSxkzTrDCfxxnxcmebGDZqkdtOOQuXTnOJKqE+kctOOtnfJVxxrN2QlYR2hV7J5yyfnaZQgHRGt+XvhJLS3vJZJkvMpNMJJWB9X17Sq9CDN2tqZJFEFOntFXy6TVRdlEroxyaLdUDnE2g09gk/LJAQnsTUnIWWSX915DIiYnThveU4mmRhSQXIST7Qu1C8yRyNaZtBHtqHUpAoMMgk/eTQzw3hhg+YTs8skf5Gd5G6h424QNpzDBChdBWRrEm3l89VPxCvOIJNk0W7I5kbjk2QYwcfaSSiZpPRcmI/T0KxEaje6uSE4JtC4TEJqN+ee2M8XaE6S+2m7NUIt70RP+TyNrogyCckndCUhqxEvk3De8lomIecF/ms4yT0zOfScxwK7jtglYfOAjIc1l/gAoTEBTsKA1DBIR6ydhB/BZ39lR/Dd7P5H7CT5ZkD0ptV4O8l4c0NrN/G4G7q5cU1qwAQoySCT7DqkTIJIR8QXmmmGcRYzjbW4Oj7Zd5MgQidXafRetJv9OYwFHvQj83aSxhdmBB+OmwkpMN+G5iRfmeaEljiycJKZMdNsHMFHPVyt3TB2kr9AJtF9N4xMMoaZxthJOmtbdC8wfD+u5xIySTvabnEgngzSkba40r3Aj9TUaUhZZBJfUCli9EVqLPD7sZOQk+XzfTcjzQ1rJzHs4IkDszJsBn1+K+83SZsrcpLZZRK6lDw+CctJtExCznfzfmQSqpQctvykTELbSVzTUgUOn8QLKBtUJxK3W88U1DLbdxOb5UlOApWE5hNZ8El8QaEvZpil4u+QSQ7rd6+zuHJ2EtHKMz0vuQdH0GKpULShi0eERsGVfMUZLK4gk9Dajba4UmxayyQUo659ezcWV9pV4I5yJQB6HbY8etezzgSPJKvvRHeFb0wOWRChOaQjlpNksrhSnITHln8nnOSe5CQvr++7IbWbdln4+QKnAjOe6sBJbpgXyMkkGfpueJmEFVxv/AychEQ6+vVuLK4Uv7sWpPaDvGPM4krLJEtO3ZfUHHxAS/CCiGrUjsRp5Zqcy3GJmTlLc5JlWrTlKgk/Bx96y9N9N1wv8PvhJIzFtXt2RfBlO1ofRjpiLa6Geyi6lD8JkHvW/ERILZ1o60LRI3Nsy88CG55cpRGv3dTOWICZE0U7QmtOspZcpZGem/s9EC2Y/kbAGMLmGlW6Y97yhYDUhuyAQTrKlTYteUOliA7yeZ/iNfam8MmJnbGStKyI6CH6B3SXiJKvS2tbyirXprYVJXslqvjCc217BZZBVjVb39W27Wi5ii7GSYq0ZcmpvgvBFccC/8ExvvbEAqERIjYpJ4ILPUZ4dG+70Tr8z2FveRai8xn9SagUK4FVYGapsKCSfJ3+Bt3AUq1CuEqkCH0c408gGUFjIq3N6TnY1zgU0Qqm5NCwD8PwUfq3W6EeZR8e9xK6v0ysvv8cr4chDoyuiiRFKskYwOJfJ19YCVBAGgloNnvYCClUQbPxMCfZlFUTPo1UWrFt9xD+dmEj0hepK+IUXahPSxMR/dVdFfBswy8TEfFq26vFXSi0CsvxdcqGSEf5i53KdS9sgjzL3wcWmlxN0Ir3qPIXUEumpIB/sXO7i9Amtzv+zu3O6dZ1/FRWVoW8hNNViNfgBi3f36nuQpLJXfU0hj+YmXylClIV0jal8RN09FhMskl1C6/YV0JIIZqwG98gQg98V3h6B0Ej+zv4EQ7wH+Yk5/D4heM46876BEGw41jAefw7OL+BbX1iD+GIpOM38Ty+ntg7OIral+FRSgrM5iTB4ik8ntzEScY3R3/DyEvin02U1nGWURgohEdHTtpiHoWxsKAsMy3JkVMZDL3TDUbhEX50cnMEhQfeYZoDvKAFkH/wyXQ2TOfy+9GGY36/6Z3ffL/8BB8c1PUjCNkYiumlgtXZhmelttc34GFuOJfwuMY3B6GnfLEMP8EkSP29PsFPcmSG8Xrer6rphOzzAmr2VDqtIoMdpDid2Os8sPbHV6NxSKcazqZF3CVOkfdvk+sUwlrUulW3UCC1q2534Gy3qk7h89ZHBCEaSgHhgw0DdCUcIvjPtwp/i6gmkGB3kbKG/OXW7JINaw32tVLvFE4elkGEF9cGBA/HJOf4oweUOOQ3zQhXMGyCXMSv1/wRKE7S369Atu5RdwQzraGRjnbqlhhbnraKSAKbp3sp9EU6aQQT1U8R/254X2xCE4joIvHVaByQxkDJy2IvPoXu4H+31FNl8COdQX8tbtV3Xv8W34dxNIXkdHtoJ/pUUNtaUZ9UYXWIEUAV0MYyvEzVc6H56J4Rqry7IavNYe3mDnjTp6sEwXOw7cHysOdGl4VWXn29etiLl8Gud9DoIiBPxGEPkT4sDe0fYnyS0PvH1dcIANJLp5cHE9ibX/HcOEL/bni/h/gkF4i+uAcpMAzXCKJ6i7u3dH0wzgv+YmoSw71rD2fSotRw3RNNDwgHhdVxCVWw9HAihnJoe/JCVUArQNCb9ujSyHVynb3lOg6YaLQbnUZncm10ckuOOEXtBhJjQLs9ts8ZqN3cfoUUmF7ninE6Oca3XWgEfefPz4aOn1hzRs591H03HfgR/B6DoejJCrtOov/8V4i2hwbCoqwgNnIS2p9ktU6braBajPXdVL+WCVOmEd1IGp/EWDKhYhL1UnvL7xBDRY3ILGRCFUiu0ug/VUnqFHBEblVk4CRUB17p1TOM15khmB3voECaynL29QFplu886PluiGrU+HIw63w39tn7gT6cmWhO4tGcpPSsOQltlieRjoAmeoEHWIyphLNUUH03K0FFKmoOvlxZ7FjHlO9azi2SA0Vjz7R1soOv8l+SSag+XGxuKE4SDyGjOIn2TKNex9hY4J8eh3QElYTEJ2lH8HrUCVFJcDbPsExkgeNu+F7gfZKTrHy9TZ7wf4BkQH1zDCepxTIJwUlKv5v1uc7Bl+sg0hHBSTqoRJNNVuNK3Ba/UcAfbd5b3s+3mBF8/yXBdRZOwsskHNIR0EglAe2G9kxDX3cSnySHqAKKFlwRfZHs/4FKwEDUcDKJ+6maPOH/AM3ESWzEbeNkEnYE3wgn4Tr4QPUQPD6J+k7k0UHthvRh7XzZus3gKsCJtv8ZYmUSyuslo0ySnE+h8eaGkUkQn4SaZL6jOckR1dzsWfn8Lq3Azs5J/lvazSwyCctJtExCvvTX4pPkEOmISsFykvYacBKyQWpEWTgJ7Zn2P8RJtrPIJEQOxqF4pbd8nZFJgJOQMgnoLlAFqPk+O8hJWM8zmpPwPq7rH9pNTImdhFADjKD+OpmE83HN2Ye0Z1ojqqgWbZBb224BJyFStPlxN1hJSP3nP2WWn4OdhOIkmbSbwVhgHHdDVhLXfFL0uBvbO5MFqjHp7BV5TrJL8wl2BN/K1w/tJqZEu6EqCU75Sr10XUlGxgLT4248a/eCwScxvIrcoDkJg0/S+cLgk2QYC/yh3SSUxU4y33E3OfdS7DC9O/CC5DrJSRDpiOQkDxw+Cavd2O9mQqI5kPw8AyfhtZtaICTDScb7bujmxnDNOocqAJWExHWPkY4og9zeVhb0xQ9OoonRbuZhJxntu0GLK20n+XFlseNuQtJVIAM+ydLMqAL2f0pwfWcW1wx2EotFOgrFGfGv2tF2vnVK8povW3Qv8Id2M0TZ+m6IHLCSUJwG6HUySWwnoczyDfu3JSmJo4Hoi6R2o3uBSe2GlUlW/lMyySycxNBuzqSd5FiIgOkFftVYYGyeaJnE/bZV6F6SnARkEm741szz3XxoNwnFMgk5KVJQb75Ou+F6gduRVaB6ZnJLTsGnje5LnMW1zc53w3OSMxzg9R+h2ftuaGx5tJPQMsnIVCasnQT7cGlOYgehLNBdgNv5/A7NSQ5uP7SbAc2u3dQZb/lXWlw5mQSaAlomOUdjGqXg6l5gsgOP90xjtRv3v2VxpV4Jw0l03w2NmRbwnmkHoxZXRiZhtRvDNZ9IFbiNfTc0J3GLHCI0Dqn43+EkZGMAlYS0uOJcnCSnOMfmJjlPJWPNkUPNDeKTMM2Nd9D9TnCShuvIW1Im0X03t1+Jivbzy9asiND/LYtrYOuBUOkUiOJgOtaEIK1eYbGfsbmhXipipqFgCzWx97uR1fAs5Q8N8zR+Ayeh8EmMPVOSMknbE/d5GlgcZRJKuzHc4wKN85ogQidXafSf4iRdx4um0NXelSObZnLVp6toDXdIm+EOPm64WNPBo3sk70zJDX0KiSbXNc9R+ZYc8BrWmOY6gsEniX1cqRTYd+MTvMY2i9UWPZUJ3wv8X9JufGk9wmKlbY+W3K3W4aDP43ULoizcH8D2pAdnYw5J4PC2rX8hq77sBfZjBycCgd9GZxifjk8CtIIjfQsbD8nlOK0gsgekOHWiJGScMAXik+yGkZEETdChQD6xhOPk06nkFVv5/cq0e+Bg+jXQf/47dJHHcfqw4Dq8wYPSpxiPJ/GKeCaqUNBbD0XHRxgHDOlF4FboKr/lxxgnt6qbBPZj9YlUBYi+GLKkdBCf5Gx5fTmd1pcRqsJvhuGUFOvLX7ehCdyXj+twvl6Jt+Wv/2/vFJYQsT32JV6EEwuG4vu9l2GCOgL70dVxnAqii8A9bqakWO8hmPxvkm9tHH13NpyTDfMMn5QmufzdMU82Ti5PNm4gEo9wXVF5GRZRfrtb/n4JgXHM9xtIhYm/I0SJxicZkkm8ev5+pyubUxap9uEFKzkUNLI0mxo2Jw8pkiC9E/XeGaboJinia70OjrDoHPzqrvJVdQcW5Y/uE3QRf7e6W9UpYDeywu92Y/wRknz4uhAXZeoKbRqCpIwH91cfv1o6BX8PnWIiuL/iX73Xf1rtwrKjTgdrFaFWdv19hHK57QdXC5WyXUJ8EthcRz/tfV9eurUY1ASX3tEuh/WbsikvfGH+MQYxgz3mcVj3W82BcNxG6Am/XnHOlicX3GlOIsP4anI9OwsPTjFFBa8HMfFOn5+dxZzkEe6RxA6tsDi6Yo9SDB2SCiAyA6qICkNn+VPohMsTeydcP6tIX1nhp8nIXpI7eBiYYkq0sxwKXxXxdDK6lwhSbFP3wAe+I0LnbH35DC7P8AHqFXZfHVyFUhAPKZLgr07wT/I6sWnQfMAXTjpQoe0dle1rUZUaCa5HoNIMkeEebav6sMUVxc7lyJ1CDxp9xJkaD2RK0G5CIsXDcR1KHZaTy0k6rmPlf3vyw+vkjvbEHimq+PUgOU9JYkeoZss4xWQ0UhRKK8DrFX2ZkmjJUfVv8WlavB2twz0K5pd/9GWczRgdSfGrl52mFXvIMmZEZ1hK001XJRq2baDTEfCRJCSFjD/mKD7J3YUKCduNC7xEkdoNZHiqLqkU2jPt03Q7yT+mWMigGVo/gmfjZMFxvUqu0sg4rj9Shi544IEkDVkdRPyR19Tj9IRFliHAUtIWV9YsP953U/1KTt+xZEpJGu47em4tyoaBOK47FO6AGwA/e3vyGfT5muNvkfMCb4CaTU/AdsQBCncCeUD1vBgI5l9fZSyuVA41dBUYwk6cpGx9N6O9wNSsV9ozTW1QlUTDhhN8IteIOG/59l5lEfhlHCexT26fyCoQcxLqkzJpkzmkOAZOQuWgOQk5vo7pu8ngLY/zAtO9wK+bpQKdD3nPtCZlL+2g0xHtT7L0mGj3b0ocJ7HXq8UlouMrnjmLxJbfkExzYzxLZgo3fMWz+JP8C97y6JnWdSijO7ziM7oX+As/7iZM3uObEstJnJ07sgrws3keCa6SICchvuKYk5DfbZZeYDIHPS8w+dJHK0mGXmDOMw1eMTffDdN3A1LLY/Ie35T4SuI/PRB/NZlhPLlKI+AkFaaSmPKAesUJJyEEuFxwQDc3WTjJa+cFZioJeqYx424i4CTEv9L+JBwnWUhzw1YSlWFeYFImOeK0GwO1GyoHnMVvJk6SjLshcsB5gTdpmWSck3CeaVdWdw6chBx3AxUxeY9vSrxMQs8LXOPnu7mRIdvcPK1RzY0J2g3DSTLJJFRFnLtM0ogOJIWZBsRxki9oJ6HnBV4MJ6k8JPdLJ242zxf9+Ek+YLKcBGUSau6tmWUSrd00yTn4rtnZPF83gi/XKRflJS24PtBTm3VQBWa0m8Vwkk8sJ9mm7CQlViapOSwneZbbZZKT8DLJE2lMy4IqwHGS0RF8vLc8qMDdEzIFN70azgucvyXmu0FOsgjDvM/M5vl/cDZP6gXG2g2R4oXnJCiTUPeYXSb5pmUS6h4ZmpuxcTeMTNK+2io8Uy8YXzHJSRo47maHwh3o7C1GuzljOYlFmuV57YbnJCZwEkqqiWUS6pVkQzqitRtp2uRbH9duWJnEYhChNSchqpEWSxnt5l1YXGsn1Vm1G5M1pmWyuM7CSXg7ifFb+OKIkr7GtBsefbFs0eiL+IrrNCeJ7STE9xMtxuJKYkqj4LrLaDeak1B8wGGbm2wWV1ImmRkR+lDuV6mJGscrCcgkNCcBPkAiQgMx+CQaVcCnvOUhh+Q9vin5FaaSICehXiBrca2Zd/+6TMKjCtSugZNM8yWIqfw69MXO2kGB4SRR2KQwAzL03SzITsLKJLsH1CvmtZuXjQx2EsbiyttJZkZfBJkkYGSS4lAl6bDoi42o2GV6gRl8khzbC7ww7Ya2k2STSUg+wFtcZ5dJNotZOAnVKAZCnUXU+5hsbmhO0sa+G6oKxIIrySe4vpuOuxhOQsKAIifxt74QVaB0oy2uyVUaGU6T126eSDU7k0xSTk7TqJaFk+x3l9eo1z6u3TAyCboKZEA6IiSOWCb5G/pubk7J+cOzaDccJzlHTkIJlfOSSahS/m62yBnG4R6vs5OwqALISUjtRsskNP7IgmQSnpNs7xFsunSjZRJSu8lgJznwCJ+VLHaS2f1JJE6hTFaSYU6SDeloNu0GZJKLvKRmxAElOsOIiJmJ4yQr2SyuxOOqZbOTUPeYl52EuseqqG+SL/21Mgmk5+wkS2GTNsuDxnVDPf1FWVwZTlJa9+lvlLWTZNBufnVnlkky9d3QFldSsgKCSjKKCE1rNxqfhE7BmOU7kVCOSzyY9yKTzEe7ofuHtJ0kOU+jLDLJ0xYluJZYOwmqwIeUbVP3Ar8CERolihllktya4OCCFySTMP4kJWd3+4F4uBm0myz+JLSd5JmVSVZp7SaRSWgVuBp61AD918okufIB55kGKjBtcRWKgssCWpRMQn/laJanHj/vLZ+hF5izk+BouNlwXHWDRX35UElaylqlXuqETEKOBMKvvEA3SO6zkGQXIE7U6JG1ZEF2Eiv4k9wwjexNy5fHhLVa9wIXSU5iSmG6lMN9FCp5WdYwIUAuinKGm1wBLXk4SlA53kMSMEFL0bJsXkbT4pcinUPX8YZyHaUlD8f43YbEPcpOc3SGcdbH9UAeUSnc73eKnYNPWaQ4vRiZJF8VR9OZrBFYKu9LoklKZBKKkZuyKp3p/MqAN+j7UlgHW9sHW2I7RCc119wWcI2bZT3heO99SLFtQcDkum1ty+otxCeXE3tLdOFZ+vJpaxtWDB7eIOjAOkAEhpYSW0maib0lZHVkLLCsblAjfd0ls67OyLHAIn+xQ6VYCprwcYTl1IGtmpYWM4Iv3/Kf+mN9J2gTx7XjLNfJ9SRdYeeBPCT+avms2spL88tDcj1O+ivPX9y38hew5ltdJ3IjbGDgWodBjKb7fAsWTDS+Yjgku4ef+2NRyRqTTqkDRrfB14ixGADH8T3WskGThvgkd5Xls3A5ZTkLw9AJET+rgpe4QtDwHqLDYlWjj2DIOoSMbfhDfPoX0oKriUhcISMLn9MiSFl4w1SqIL4PchtdphT6qjFQ1NR4JI0yJJKLSarIwTtC8uWjEwqsOO+OxvBJfL+KyB/pi+/78AH6vtLLztgeaAceC36jEHCLGSGKyPARD+hR1NKBO7c743eDoFsE/pidYuSPdNrVxcz7CKSSSnWlizk1RVc2u7f4iU3NAairIA/iHlLd6se5c1rdxU1h0u5p9RQvIAgfBZThAp5T/MDHl93qqe+37v0dBcnxEn+DmfX2SQ77LX2OL2V8UafwUqGQQ8twNC74YocxoxGfZBZahEdZZlKh43zCdWK3UYk/V99KQD0mFqcCSgHQrpiS4ixGU1JPCaxK2nKGCCbASYbDhpZlKJ/wleVcOj3C8OTU2dAoQ1DQne2zkyRsgo6cooIcIK2m+DjYbzjr4hb+xfaZ2Qsap5tPW6eqmFz0aCgf3FlqRLsBaaDVum/5F+Nra78FBHUOny0s0FzhkocobMwuIP4eKjWcIAuFFHCi08Pa8uNYPL2A9nMh5PtWOcFQG6UVWD3rFNp53/Jq9kptJWWzy1pe8EUQp3BrsPT3kGKltrcMLasMIK0OHltW7P9jP4D+09IpVnTI6IZFcREhtQ9ShyXDnT7FpYQ5ILpIgh/XixvsDfuoLgK7pC/0b+Jdclqzl3QOgYsQdSvxb0ap5F5KeTwaM5yFvWL8E4ihSgLazb60KpUKbGPro4XH0AI+LC0rhDQDwksrSVcJRdfvFiHk0YI1hLQQFcfiacVaTKML/yNA1b/RGF+RbNBd4BtOLD4YNrwhGZ9DCRKHSWg3rJ3EMAtKXE7VgeFW2k7yE09xiW/eLyTQwOLaCx3a65/07CRDv4JjnAjXl0NgiQN8kjhueM0Z10Jco9ke84uXcRr3TKs63l60tzSxgtwdfQF9/EiAZgKXQLjT2xJu8Cu8eogCIS3IA4K+7EVLEAkbnuhzUMaxz+rtaafiEabmxoonlLh2p6fI2Z7l4xeYXE6SEY/gS67SKLaTUMq+8UselMleYHhY9Vm85bP13VDmOKBxi2sPxyi2Rw/tYQePtBNZhY1aTv+vDl7DEZ90O1mAhsbdxD/vRcR7yCF5j29Kp9wgzlCxFtdb0sc1duehnHVeLusVymYLL4jrBUYQG7qnhPFM48cCl343yTIAjXOS7jWdnvcnccM66ZYUbS1CvOX6h+ywwIzgKzk7T1SKl5iTUK/YkeGX5DydkNdcUV+59ichHYIYz7Sk74Yq5SE33017jJNwnmnAB2iLK3CSZXLmLLS4Ji/yDalFTz+da9hfC490JdG9wERTEDNy2uJaf6SaAkjBcRK+F/j6aYt6xRnG3WBzQ7/Scc80zls+EpKEzcvlvlRIfxKNKvD2pE7o3m8XmhumQVr3i0tUFYj9SYhXnGks8Mze8jQneRuZhOUkXXK+G3z8jCP0IjhJXnEyyRlXSbRnGvUFxj6uBCbAHHqB54UqQORQQ8w08qW/dg4+qFQzessvipPQzU1upVJgKkmJQxXQ/iRrJK/J4OP6NOsIvu3FY6ZxlYQfC8xwksaXrUVwklOHdKMBmUSFVBWYh48rVIFZfVx5mSTbuBviHi+/m3WOk4z7k9CVpHMFnIT+RiPax/UnTnby9sRxEl4mAU5CjuDjUQVqvI8r4pOQou+sMgk/7qYUgAqcnE8hqCQjPq48qkAWH1fiXy0I7ErRnARkkgJjJ9GchHqBsUxCPIwXnpNwmGkZZBJau7FjfBKuuSE4DRBUkhEfVw5VAO0kM8kkjWh7MYLrHGSSA0oFzoQqwKEvQnMzO6pABjsJdY+5azc4go9DOlpmBNcFWVx5mYSuJNpOwnISWiZhUQVml0lmHndT+i1oc92rMdOMqy16ejVobugpX3Pvg5NksZPQ+CT8uBubl0lYHNcsMgl1j0z4JAwnGcVMQ6QjupLkyiz6IiOT6LHAb0+8TMJpNxqfhPrKWZkko3ZD5TCznSTpuyH+R+2at7iOcZIu3dz8uCpyfTcRPe6m/bfIJPb6ztMDIZMk425ImYRFFXiWc0AVoEbwZbOTUONygCZkkl9kFQA+ULikHz/23fz7nCSLTML0At/c0lVAP35aJmEtrm+OCJ0F6agpPtPf/Sstrp21LWbcDcgkTN/NVvIe35R4maTLchJ/e48S+Fh/kgx9N3OQSWiLayKTUBUROUlyPoXGOEkGzDQaEUCrwEwvcPIe35TUCS+T0JVE20mS8zRKPNPIxuLf77upBZqTUBwxEPKVqAJcLzAO86RzRH+Sd6DdULhtQBntJJTuorUbqu/mxWlydhK2FziLTDIzZtqr7CQGPxYYe4HpFEthk8J7XpSdhHRf1P4kTFOgOQkhuMbaTZl6/LNzknnZSYgcajiVCf1KXymTGKjd0M0NqMCkaLsYTuLLkBxwnKnvhpZJYu2Gam4y9QKT/ciLsJNk0m4GfTeZEKE5zDTWLL8QToLjeCmpxP40s0wSW1yJx1szuZmzzufQd7M9s3YjmqtEJQKCSjLUd8MjQq/xPq4VUiZZkJ3Eb57RnOT/nVUmSTDTiMf/4rAzZ0FzQ7ktZZNJqHvEMgkp9wAnod21QcYYa25YmSRDLzBlJ+ngzFlvTq1q6JGSq31WYBChOR/XhJMkV2kEMkmGSkL23WTSbgawEJNEecvHgVhJBvFpX4Ux4ePK4JOsZUA6atLQEwvhJLtWQI2qya3wMgkiHSXnaWRkwXGt0AY7Pe4mOU8jQ4ud5LgbT8iztenfg+Yk3bMUKd6OVj3E+DWum9WzqzjeiNYmH4q9FsohfBLdC0x+gEbZKjBmKsZOsiBj2gWOvoM/PmVt4LgbqjGBFM4uPe7mRHMSIoVt1smmAB4ncBLKRgGCLfIB6pu7FjuqMr1l1UhHfgqSkeFVhAjXznO1VeEXKpsY31hxHvW4x2EyoI6M45M40ZIbLX1ZStv23MgU8HAxhRul7ty94KBQ8dy9pb2lh2hycaPjevIe35h8K4AC6ULAEXb6LLlc2iyqYj8+dfEsv3mM/wr+yeTquuWKDy/wGJLC5Re9h9QRjlKMT92rSlfoe8Czi++qz+MM4MyNrr6quon3SF/ccgivWN1glumLG90ULvLq05XOcGLZW/I+VfFh7IZefM9BhLMLxXcit4z2nsInD0txLG8r3sjdHiJvvdrKD43MMTzRKuiBuziqd4Ksx0dL3OJYYExjPU7ucMSwUD7k8ajPhzcMs0LIYUe/w7enqoB7YplCKK8uIv4xfVmpFFVLPcXjlCFocoFw5d8K6xGTTCz4f4ox+ghmBkGYeQi/0ydwqnOQvhJ4Gofiqk/gUcZhj5CiKnsp0kjfQx5Y1pZV3ILrwQ5CLEvEOEX5neI2Bg0TJoJVIFYSkBLFA8imRwfJkGyFOEaYAgoKobKVP72zLMhM3w9WiActHJq8pIpgJWmCzIcoAenLRStGvENwAMQNiNOObvuIP4HHOETjD8Rn+gpOdRYLoKFiJYXpXeKm42P4AwyY3CdZ4I/8/D6E3OOJvtIp9D30/9FB8GQgka+UfjiDJBct/xQCdYC/H8fDBZycQm4xxILvF7qw6F1vKUhIET/ui9YtXmNQb4dXBdmVUiFKSl4pDIYlOcAC8ZBCKhCcIH+Fv8OAJBp+W0CgFkjR1RAmSkFIAcPgqH+Mt9I5AMcZ5iQgBUHAB/3fU8GqgBQxSr4Irfhzhi/y65mOb6kwHCTcl8vfze9HG/3tZMOE/bJMYDp84Tx/v+wvN5AIt0tn49JE4CiI/27GYTffL0824mTmhrlx6TwB4z7d0vnBPW42IFr/Fm4R39OJcziDS7iCGFgwcZzJ0YYDhd+Xn5Magpyknr/3fX/31vdhHaddH/8rIh1p2CLf37lN8IuSAAzTf0qf6R1m04+EFa573+BMBNmq06rarabudxEYBf5FcltdhqFyIsF3rakfjgf4RwkmE674LHSsDt/p/ZFetvhXIQrPcNu5hV3l2qvEYRiEpfB9eVk2oVnBaxUuRdCMwYnlRYiqF6dQTtSDBUkWRAZZgRS6lvjySGOYaBCRGDlEp8L1n2e535Kma0MK+FUco4/xIUKJo27+iX8Rx/XSxdm5JxLuADnoqyQ8jkRaeTDl/jAnaXtN/66yfra8Hq4vf13+NLyEDiwCHowvKmdfl5e/wuXZ13Add8sQEK8aM82XISSAS0gCOelUeAWZQM4asW52gqZ8PfyEd/8alyM5x5t8tQpVGZ7hf4AwjI0PcZGgaOtnFZAXrOUz+K/xL5YxIo7USR1ENFNW+BX+IPwc/ycE4xEX/TiwLT/dxr+q0yPS3Fng2h4+KAhaPgubp5BDaEa2eww3R2gjzzAgPgydwIaTrxUBUgtceTXUuJK3oAkvalHywB3QkWJIEr2LY5P0nlDyJkULi2NBP4LH3ZzsBR4E4Bx88jIy4gLoLT6Bgz5bAmWleQ0nMaExbePBdlewYup9f40X1MiU40L10/URw5KDC9dQQd1DTLG8BDWwFwELxuhYCHbng63oV8q9UmDm/dvgznavijKMalikpAi9BHF6OC9b8DHrACwWHmAfb/EBvmNfBJBXnKiXJskG/skSYiHdBfiNJvGwK4Hq/I/O0HZr0bI8gBxsI2dgPCw4FwR8/XBV+9k2EOlI1Q8hrylasAHx8DlcuoS9bVOIZ6IrMx53Q1tc7+TzCqGHn9umGLGTMB18D2fSp10FXEeeKnJIuTuXscB+OLVnBp6YHRYmFf4Rqn3izPI1s0o6Qp/rx0/6rh2PmeUn0naC+haJSxDAN0f7sl8/bVGuAi9leGVDFtVJyuAqMO4tTyOm1KIbKUnPNMO9FNKhhpTPZyywT3bfuRVViOGwptE/oeLm4Pu0e7BHmeVjb3nKqH4iWLN8t1gm+250LzD1wBls+YbthXLu427ISgLV6Kl7QnrLNyK2F3g+nIR6xSvh6a4wqWpUCwsVfg6+JaoKxN7yVAp+Dr5fb+2Z1rDdS8lzEuJfAJXHO/joSpKLLL7vhhx3MydUAXqOCTdUwqRs6lCNWG95xyeR4zN4y1+y/iTHkuZFM3vLG+V1eStWqUpyLOo0J2mMdPDx/iTomcaNuzkjOQnk8PacBMf+MFWAHcFnO1nGApN8YPbZPGf2TKsFoIQJZixwc5PmJKPui6w/iUYVYKoR3dwshpNYtHccVqMMnOSJQjpK/EmSqzQyNlgf1zcfwWdEN6I6Zx/XDLN5cuNu3LDJ+JMshpPw3vL0C8yIT0I2Fv/+CD7Qvp/vSJmkBpWE8Q+Z8CehOYmxxo4FZufgWwQneZQbdCXJ5C1P+3yx/iSlG9bp6Fk+rc0ok2yT2g3QphCfKS0NKslrRvBlkUmKcjbMtIVoN38qcp2sJHNDFZjDWGBKXphZJgFC3YTIoXb9ynE3vI8ryiRUxUaZpPkeZJIbmpNkkEnWdxlveS2TUNXIqVfoQelQjbbLJCfJIpPQMKD4imeXSQbe8rxMgtpNhhnGqX+1KO2Gl0loO4lGFUjO0yiDdpMN6eg8uUihuXCSSIhDqpS/m/VVogxAUElehXS0Jng7CYkq0JgPZhrDSSqzyyT2+g6j3XAySe17BlSBmTHTaGz5nLFiSkHBfBuH9bvXaDdocWXnBebsJIgqQKRoL83FW56VSThOAjIJ/QIzesuTjcW/PxbYQIdTwaEKMBbXUZkEmhuak4BEwc0wjkhHJCeZi7c8K5Oc0Y3J3GSS5CqNMoy7YUfwZbG4UpzEWBUXrTnjuHKVBHQTfizwIpCOaE5ih6rpUGb5xhxQBVjthh/B9/b4JEbkyCrJSXQloV/puJ2EmWEcxwIzExCg0Eg1NwvhJJWqkpdUgzM7qgDfd5NpBN82PeR8VotrLJMw2s3QXJ2pNC6T8GOBs3AS2k6SvOeZiOYkK+GpejokSqFlElo91TIJ9QVm0G4yjeCjmpt5aDf4iokc0OK6SsheQK/sBf6RBX2R1G7mNDiL4ySFSkB5W2WVSZLzNMpiJ2E5yTOH4zqzdjPWWEyStriSA8bbr+wFBj4gv1Nl1s0N1XcD+tE8BlXwdhKmCoBMwmCmzdx3U3sH2k3OsKG5oXLAShLQnGRUu8lgcc2AvtikUIZAP1qIdsN0Q/IyyQqDLc/bSUAm4ewkbC/wzNpNtN5Vc+8Fpu0kwEnUBuNPQms37fmgCvCchKwkGfpuSnPou/n3tZtSzIuI5gRlEs4z7XXaDVQqzk7CCa5Xi5BJLM6YxssktZn7bjJoN2wv8KwySUb0ReJfAI1rN7w/SfeIlUloV4EFyCR/wi6OVSGI9yeZve8GZJIs2g3lCM1zEma+mwQzjagE2AtMKoKIPj/W3DD+JyC4cjiudN/N3LQb6n+toI8rOSOvXel+pXlNydk9IPFJjrCSkClMyeCT5EAmIYVjnPJVkt/5NeOZxo67+REIGvHH9ipyCOmVt7jiHHwZZvMkeE3jy2Isrj4tldhfWaSjIz8LJ0mu0gj7bugpXzVmWnKeRrNrNxrHlezlNX6Llm9Nv4dRtuBhDnOSetWJiLbCcC+lCsvE02+7x0KSE7DNZ15g+FtDKBrjy6EADUocIlpI+hKtbqsnKocourZu5bE3HDa6eKEPL9C8GgoaXmD1Kqpo9gPSlqtQycvyUMDwEi198XCUYNchShE5sokIJ/EFHkZo7XN4izmsJdcptIn3UKEHiVPXTfyfw5jRXrMFyae/4sgRuxfk4Dj3qK5IyO554biqCUSOIRIKKmIVITfS6RFStDQkxzR6RHwSRB+ZRo9WAcfp1pPLNDqQ/q6IMUumkcYnIVLgeON9DQiTTo+WvK02kwu4gqwGGCu4aPwShJQZDhxd6pDiQhaHg4YXXYYRTiLg2oncaYQDzLHarSXXE7QUiPvWbTg9B9c9nA/SUQvRDaaSTpGcpxMkSM6mEZcC75H3ibu0LjRGA0X5C/5/5PepJIiakhCik5wqKYaprtAqde93R4OH6E7BXVpjPxsiCR/c/SjSEeSoEAAopXZXElgdSNHH7xkl+BVWS19WlsOpFEPsfND8ybcccS/D41/Hv0xcvz0HwRHiEgAJ59dxYAbm87djU0eZh894GQTfK/BCfLERQDwEj63Bs4mehCNIR1hJEPnj9lRBpRxeb9Vu9VTfEOrs6c5kAnVaPT2t6hT38HmkL/B5xeg9MxN+XqkrUmzT9fUnOBynV10OSNGamoVeW/c9PjARFYdq0ap3lUZYCio+fhYks0HYKHiccBbfeGzFFP1ov/h5yZEhKHWG0flpnP80Ou22rZl/S5krEHzeOW8Yxo8ORv0wIKDd6eRqv2S+BUpw41xfwo+G9rDax/K+NdxPjJXkQlaSb36MzoALIJ8Q4TKcptBX2BaGiCat5WVneflsdEVsEFgegeW1lLWOKdbjYIhd721ny58qEhpqCNXJ4wQj5+tnocYncTB18qNeVslyBw9DHQyHjC91Vdg6c0L8WerqhGJXbYWfhn8zuohqPr8jklIMr8ld1x2hlIC/iRkGK0Z0PAbE2HZNTEFYjX54oipMwiiIOYzaSfL3IJNoBI4VjUzS21ZW/oGDCbVEOZGG/cAU8fInOUFQjkD4CYbT25L/WI6LNbIiYdk8az+/v+X90QEQ0tsPtiuNT5JcYk7xDq56AVEIil8c0/tREok7245CeIGQIgmcINtdCuVTAM8EUowWM1khwlH1Z506KcPQHlFO9jQyorkUXyMN7oVhsB3VRYB5wWIb7ZI9Zn1oGH9MWT8ibEboT2L+IfRRA/FJRgVXOaTd9GpXcmy0XUfcFoghFY3GH/NJi0pvTX44Hcu3kbPDVv7CYiwp4cDNOS2rmqO2pxu6Gg3d+UZYXBtoTHukzPbwwId6geOEo3vIASti6j2SjIPidtIUTLtTeZvsBS79ph2lgcY906oOZag0XPOOwSexgy0tl7wx0RZXF3T7FlNJChw+ieMXqRQGzpz1RFlUDbPOuCMYgdwmDXbHaAqjel5yv+8qzAg+b+vJoxy6D+uCwiUAGum74WfzbHypsH03Z7fJi3xLoi2uK8u7VXlEVCOc74axuGpE6GlfJ1DcdbZGPK6a2cyACE31/mikoy6JCP25WKQsrkDlIudPcreZnE+hcc+0Lut/ws7Bhxa6Nyd/nXrFbkUVv5F9N1nmBa4WyX4VFunoJcu8wGQvcE37k1DVKMsIPsH7kxCdjEDQ3AxG8PG9wNjBRyMd5dyvGqj6jYn1J7FWbaqhxV5gZl7gm9O7WftumjP6k7xk6Lt52mI4CTQW5Ai+1XqX7gzFHEZG8DEdfMaV1WX9SRYjk9CVRNXXyQ/Qrcw6m2ctns2T4iTZvOWJJi3xTKP+CHASXiYJqA6+oFl9Oqb+6YRMksGfhJ3vBnGm35q4XmDfBxE8uUqjjEhHyXkavWiZ5Iry+crmT0I8zqQXmJJJeG/56Ikbd9MCZZ9qHkYqCXCSLPgkjOBaWYjgSsskrHaTYV5ghxl3k4GTZEA6elqjRtdl4CT0vMBAntgixwIjsK4yKWVxpJJkkUmKLCd5BzIJcJJ83iIcghq1TyqkXjDkcQPaDaU6su48/Fhg7U9CvcDn+uycZO3pidRufgO3UuSXP24n4WSSKAPS0XuQSXxWtFUiIMU1lEkeiBcYzwtM6z+ze8vDPZqcTMJpN9tFSmXVanbhmawko5yEa25yV+y4mz/vQCZZwUpCG9M+KV+QQDdQCbKMBaYai0vWW34RMglnJ/kNzQ0tQ0zYSejmxoieuHE3C5JJZuUky75PD+ACTiJob/k5aDfZMNOoB85zks3iHWknOZQXvkVV1dERfCiT/CKrQKZxN4voCGaqwDrKJESKBvAJeUYqyRnnBU6u0igjPgmlns6Fk2xxFlcVei5lThvXbhiZpH21xeOT/BWcJFQVEjI6RhUgOclcZJJtFp+EkUn4scBP9GSQXC/whEySYdwNqwK/DzsJJ5OwZnmNKpCcp5FhYnNDyiQ8InS2EXxvzUmqT4fUbCmv1m5wLDDT3OAsl29OGTgJ2YGXAVueGcGXQbvJgi3/RHURJiP4qFcCMgl9D+QknJ1EFT9T95jQbti+G8XiuMLDe3OamZPwFtdsI/iSqzSCxiSLTEI1N/OQSfAVUxVxtZ7PV7Mb07JYXFls+XfDSchKkAWfJBP6IsVreE5iyieywcpkceVkEg7HtYkqMFNJRnuBWVSBAuWnAeSG8PDenOgqsLLMaDcZxgKz6Its300GiytnJ5mHTBIJepaK38InB1vpSvKaXmDQblh/kr+Ek/D+JAyqANt3kwHpKMssFfOwuFKlPNSDMgmeOdrcZEA6Kld47eZ9cBJOJmFBbDg7yRz6bljtZh4yyRrrmVYPDKqOTMgkDD7JefmJt5P8DdqNu8xxEg59kdduaryd5JlFOrqYWSaBSkIB50ElIT8GoNFKwsJhoUzCWlz/Bu2mls1OQj1cVrt54ZGOsllcqVfi0fgkudyPTZBJKE7yWzTplz42m+emLDDe9Wu8xRVe0NsTz0laTDXimpuSs7tF+sKjdrO9Rymw3yXjLX9+KA8ovzLjFyuTrDJ2EnfTgoqYXKQRNHnVym/yWQAnGQzzPAfBlQakw9k8N2iZJFpMJSFfMdsL/BMFV9os/49zKyaAeA1Df0NGx8DeH+Akn2tG47xjtI2Jg2HYN8IqG5220dFhE/ufHfu5K4Lazw4OueyvnR867vyncW6j4KoObaMBd0xbdGOxCYdG6pLr2IHl7yOSkc7zB4QNHXRJ7ED4u0W4RwfKAaET2w/D26of6r+PBDIJDXqDINS0nQQB7/99ToKVhOIkHRxpKA4Jf5KGGxy0cHb25FqTHXleZBv2lQdHePrQFDhw6pU9D4NGD2teYClx6cFv1nRYeWQPaa68zcqpdK6vMGiI8NewXcE9KsCt1FkAV/i78QVK4YUSygD3SKdyEFZbkMOmLpbOeXgPW7Qa45MEWKZ+aH+Dn115jhxubq7qLWVtTm+IXZzi/5mShF1HLqJ/DzgJxfFsx8/vE5XEhpqMrgLT84AvVOX35fJIHkvL9buKZ5crUjSFxJGK+wUpxF39Tm9NvZcCNzzUle9DPJw1MQWcDe0h0V1dqn1fYWbNBOcBCTPRP4ckSo/2jjOfXARsBd9XcLirxz8eJ4kCIt4Dy6QLFucfX+s7aeiJKpZzOLSfDktx27xOHgE8mU2Qk06XIz0gdWVixaGrUOmcSJ+nE/LHRZBfwbHAsKysTK4r3hZwkq0yXMSJxpYVdOvM5y+agT3+03hdsT3kE8ApjgdZrLjY76ucTfRD+B+j5kAm+YGoAvvyMQYJmKSKRhWYhjqgaSFtDRCO+EeCskyuoQWaY14d6BRAGDS8hQf4fUGKbX09uUIOcWX3BV4kVInBV54SlJb/IYLPKakiwEk0Psn97jRYHOCfEO9Xkcemk+wu6gH6fnU3Xvyd27F9dReRDS4GScaXBMAk7+P5xM9hv5OADMFtdm77v4oRR3pR8yFokQqqoNIIIvCOFzsQn7bo3e18SuNjfnhPvR8hKIU/NLdW22vqXxRCx7l0xmnjxol5cEsuf788guuTG2djcHQuT242EDbng15Bytowze+4DpbezjwpIj5JUafQu++Xvd0GxsNqzeWBK/HJ7N92eKdPLNDBkirS4yTQ3kd2rWTXRpaSXSrZhwlm2pJh46UOGznaQX0RwBP/IRKeXaq92EbtBVa9M2zQng0d9OcIe4GfV/ActCpMgKe4K73AW4HrXyBGzk7K/BNnjVtcAL3TAXbwJAaCa8eT+9KqhIGRS3F5BKXmjyl2/QLVZWh/O9Bt0gdlJDEwqk8+8/Y1Wlw3KXXySswDX4zutY1Ge4GboLu47tSh1gZCI4V7hF2+sxI8fVSSV5BFjuA7hsZEkiDd17GEMCMVvlH3GOm7QX8Ss0b0V+SM8gHtn7Ios/x/hsi+m9KzzF/Qfa7eXPRJ+qWO9t14PLb8wfvAJ/mvUGub6mk2NBwW2XfjzUUmkc9EJfkx7k/COB110DON8yf5UHBeQUXSn0RPQEBzkrt5yCTMWOAxTsIN88T5bugUi/En+c9QMYO3PPkC5wKwTQ+BGJNJ5uItv4hxN/8Z4mfzZGSS5jxsDgXS/2NcJuG85aMDlpN8yCSvoa0Z5wWOTVuzUoGSScaam9/cvMAok7DazSLwSf4z9DSrZ1pzLnaSV+CTbHKCK8oklxwn+WhuslOLHwu8CE4iXzU4ixl3AzJJweFkkoU4lPxXiNZu+Dn4vLn0SdPIRK/UbowrVrt5+JBJXkNFGn1xQTJJN7tMkg1VgJmWeTH4JP8ZyjKCj/zKFy6TsMa0n1csZtpi8En+K9TaIr3lF8VJSIsrcpLBWGB+BF87suT39zCk4j9DTxlG8JGcBOeknJlYi+vIWGBucBZ28HGDsz4qyStoq0wNAOO1GwTYnJ3k69AXWTtJl+UkH303ryCak2SQSebUd0M1N+Poi1n6bmhOsvfBSV5DFm0n4WWS+XASWgUeEVxZiyvIJHzfzYfg+gqaWbtZgD/JqJ1kU6qBM2MaNT56gedMFjXYNBMnmUdzI58z9wKjCnxGOSciJyncfMgkcyRBTn2WRbtJMpqJOO1maHAWess3b8pEj1MDLa6MMe2Dk7yC7rfKFApRhr6b+RjTfmVubtpQSZRFVVyNCM00NwtBOvrPEN0LnEUmSTKaiRiLq1UfAOVBc7MvflG4rxn6bj44yWuoRU4GuTiLK6mvRNsFYSbnWiZhpmOLDqTDcZIPmeQVtD2rxbX59tpNecv3/eQcK8ktA+0S8eiLH3aSV1CrSOEUnSPSkfw9ndfYV19BapmdVBhokJPy6Kop8hy8R3LHWCZ5DKBSdX7kGhNr7mfOKD9Jx26cN3Ltn3Gq81yj/aOR64WgMe3D6egVJDaNRrvRhic3vjdyP2rY3HQD28g19DJOdmDNZ7zkhUZJmUKy4F8MKokeC6xCL4qiq7XeGi/J+doRznsRRWuwXGGyaE2fwh4uMSQ6XhT6xH+DpImPG2ltYh952HQXHP1C9MMe2aK1YH7y38V9C3StkbV1D1UHKiGoT74USR3JdbCStJSwtotbT1u4PW1ZcCzqy23Lsg6E7xfgbGvbKm5tY6wlDjAJJheY5uAO0Xk+KCvdSnysWxY83XgPhwMLnqs+Rbezfbn1COdbKZuYS1sznXbOEnAz5fSxJ2JUAR+BMRCoAuEvTv0LP7k47dfaXeW3WpjMb/mnUNVuddIC/mwXGBPkkPwkZVWIIvVBA7rHz/Yij08l3sMhPoXwmDAgCR3Z+gkY8qvxk0+jGAMF3uYknapK2TXrO8r3h+SiBo708ZufzO9H379/P9n4/t2ENg+uT+DS/HqX3DNfqFi+L5xvjvBVJZS+DE1I7GyY308QwQSinr89m88m7Ib3uPwywy7+xQ9aIKmiCQ8eH/7kFnxHhJNbeJvwmuA63pKdZxtu8GxaUnxOqghykmber4MSXHup2aVaqWTY5bBoIg4GXH65kafV3X1onzaiwLKuVwzbtMKyeybgFwaClMDiQfVRjotwJSXbLr0gZkmyR3qx7fko9h+UnVoSRN8YUEa/h+HtpbYSCL/VNV1IAu/pxX7Bt6TP7BJihhqYYgjHFZobX96M6MC2dxwl2AhGdHT2FTiLXC/X3ODYPc/llgK4ffl4ML6oYQeVgnIo609kfbQ3CyYSEfrcDYqKsZOMdfBVv48a0xo26F8JGSuueyyUs2T8PI+Dz+1aLldbGfoF1BJLfifKlIu2k6J/0KJIEJYWeK32oeQ900Z8XCmseiAcwUdVgVzOPWuuE9Wy8cFJFk60zTaX+3LADM46kOGQdiO71NQoQFGGcTfyhrhj54OTLJr2xW8CTQloTchjspIUfTVsJ/GdiPEn6X6n3ReXQknJJJ29D06yaOI4CaIAUJUkQp01OUdOsi8daph7B3uBOacjCo77Qyb5F4icgw8IOAk97gYtasm57ruhfWK1PwnHSZqfqBTR1gcnWTA1qTn4gECGICdWjCzIJDlHFTifVxtEeiPazsBJaJnkKS75By2K9u8YTnIlBO10NMxJdN+NojDRgJNw/iSMTJJbwmr5QYskGVAqMHAKRiZZs+6HOUkd/U8ITmFcFbsMJ9mr1CmZ5Ge0/dHcLJiyyCSUhDAmk9wBJ6FQA5CTcNrNslynOIlu4D5ogXTPajesTALfdXIeyyQkJ+msbdEYbCCTVJoOUY060dZHB9+CiQTvA0KZhHqpnhhqbmKZ5ISsVE+S8ZZH7eaDk7wrIvtugDiZpHwwwkm0TELkiNrNEX1HRrtpf8gki6b7OdhJlErO4QplEqpSdTLIJLQxDaSapOwftCiSnJ3kgJNJlPUrOe/JJFT6DEhHUElomSQp+gctiLJwEqrvBgeAO32n/g42N/Sw0PKBZFAFeJnkQ3BdMGWxk1CvzCuqg6HBWdDcFKjm5OdVkcMnYWSSxodMsmi6F6s0J8GXSjUf6G54mpyjhIKchOAUIFFwOK6MTNL58tHcLJoEzUkae9tcLzBkkpz3tBsive67mUkmaURQET9ooSSuaSchrnkYsbiea+1mg2ieEDNtZpnko7lZMEmmuYm2XsVJtHZDyjDWjHaSD8+0hdP+HeOZVn56hT9JYnGl+UCXtbgyTkcfnGTRVB+4MacSp91EILgOoQpwFlfddzOjTPLBSRZM90Pzg6cSCJoBJZNcFZXVV4F5iytUqln9ST44ycJpusRhGKWSUfKEdNyUFsnQb7pjfBZy/YsOAUpkEqoSZEBfDEl/kg9OsnC6V5XATR7/KBlRcBwcfwtl1TJxsN0o2Z6HL9JeDaWyDuMwlEnQ4kq5L4J2Q8YDASehxt1ADh+cZMF0oQSCzkySa8pCoSuV7+/WJ7iNsRaG3k/gHJZqXSiZhMI1NjeVzb0YHSOFrkwZ45dMo6XIfFKPm3CGuCWTS7SGU91+0KLJCq6iq/KaB7v+IfKG34UI1tYgordcRauh2l32otUKfNT3g3E32uLaKtQPtra3xdZ2cWJvCXnrF8RT7xrW0YOwtuvKV5BCaHSTyWVb6in6QKf6WBewtu41nEVLiSICzSDUDK4x5MyBGJouUeEbszBu24Kz4paQ/r6EV44oECP4JNDcIFhFq9XyL2A3sfcREgOj42sdNHzAKMgATv3WfksH4aG3YcJWHirRBy2arGIaJZGanoaS6FMMxJM7Ib5e/UjqSNzcvD354hOiX3zQ4uhow3SOTk5uTo6Gl+9H33Xsd/MSDxDtHG1AKJxsQPQGhB3Bz+AQ2Ln/H6SgwoDG2ZlfAAAAAElFTkSuQmCC;" vertex="1" parent="1">
          <mxGeometry x="20" y="210" width="52.39" height="50" as="geometry" />
        </mxCell>
        <mxCell id="gE6CBauCtL9fu7mNOvlH-22" value="" style="endArrow=none;dashed=1;html=1;dashPattern=1 3;strokeWidth=2;rounded=0;entryX=0;entryY=1;entryDx=0;entryDy=0;exitX=0;exitY=0;exitDx=0;exitDy=0;" edge="1" parent="1" source="gE6CBauCtL9fu7mNOvlH-17" target="gE6CBauCtL9fu7mNOvlH-16">
          <mxGeometry width="50" height="50" relative="1" as="geometry">
            <mxPoint x="390" y="450" as="sourcePoint" />
            <mxPoint x="440" y="400" as="targetPoint" />
          </mxGeometry>
        </mxCell>
        <mxCell id="gE6CBauCtL9fu7mNOvlH-23" value="" style="endArrow=none;dashed=1;html=1;dashPattern=1 3;strokeWidth=2;rounded=0;entryX=0.75;entryY=1;entryDx=0;entryDy=0;exitX=0.75;exitY=0;exitDx=0;exitDy=0;" edge="1" parent="1" source="gE6CBauCtL9fu7mNOvlH-17" target="gE6CBauCtL9fu7mNOvlH-16">
          <mxGeometry width="50" height="50" relative="1" as="geometry">
            <mxPoint x="390" y="450" as="sourcePoint" />
            <mxPoint x="440" y="400" as="targetPoint" />
          </mxGeometry>
        </mxCell>
        <mxCell id="gE6CBauCtL9fu7mNOvlH-24" value="Matrix Multiply&lt;div&gt;w12 x a1&lt;/div&gt;&lt;div&gt;&lt;br&gt;&lt;/div&gt;&lt;div&gt;40 x 256] * [256 x 1]&lt;br&gt;&lt;/div&gt;" style="whiteSpace=wrap;html=1;aspect=fixed;" vertex="1" parent="1">
          <mxGeometry x="230" y="189" width="80" height="80" as="geometry" />
        </mxCell>
        <mxCell id="gE6CBauCtL9fu7mNOvlH-25" value="Bias add&lt;div&gt;b12&lt;/div&gt;&lt;div&gt;&lt;br&gt;&lt;/div&gt;&lt;div&gt;[40 x 1]&lt;br&gt;&lt;/div&gt;" style="whiteSpace=wrap;html=1;aspect=fixed;" vertex="1" parent="1">
          <mxGeometry x="334" y="189" width="80" height="80" as="geometry" />
        </mxCell>
        <mxCell id="gE6CBauCtL9fu7mNOvlH-26" value="Leaky RELU&lt;br&gt;&lt;div&gt;&lt;br&gt;&lt;/div&gt;&lt;div&gt;[40 x 1]&lt;br&gt;&lt;/div&gt;" style="whiteSpace=wrap;html=1;aspect=fixed;" vertex="1" parent="1">
          <mxGeometry x="434" y="189" width="80" height="80" as="geometry" />
        </mxCell>
        <mxCell id="gE6CBauCtL9fu7mNOvlH-28" value="" style="endArrow=classic;html=1;rounded=0;exitX=1;exitY=0.5;exitDx=0;exitDy=0;entryX=0;entryY=0.5;entryDx=0;entryDy=0;" edge="1" parent="1" source="gE6CBauCtL9fu7mNOvlH-24" target="gE6CBauCtL9fu7mNOvlH-25">
          <mxGeometry width="50" height="50" relative="1" as="geometry">
            <mxPoint x="390" y="200" as="sourcePoint" />
            <mxPoint x="440" y="150" as="targetPoint" />
          </mxGeometry>
        </mxCell>
        <mxCell id="gE6CBauCtL9fu7mNOvlH-29" value="Matrix Multiply&lt;div&gt;w23 x a2&lt;/div&gt;&lt;div&gt;&lt;br&gt;&lt;/div&gt;&lt;div&gt;[10 x 40] * [40 x 1]&lt;br&gt;&lt;/div&gt;" style="whiteSpace=wrap;html=1;aspect=fixed;" vertex="1" parent="1">
          <mxGeometry x="550" y="189" width="80" height="80" as="geometry" />
        </mxCell>
        <mxCell id="gE6CBauCtL9fu7mNOvlH-30" value="Bias add&lt;div&gt;b23&lt;/div&gt;&lt;div&gt;&lt;br&gt;&lt;/div&gt;&lt;div&gt;[10 x 1]&lt;br&gt;&lt;/div&gt;" style="whiteSpace=wrap;html=1;aspect=fixed;" vertex="1" parent="1">
          <mxGeometry x="654" y="189" width="80" height="80" as="geometry" />
        </mxCell>
        <mxCell id="gE6CBauCtL9fu7mNOvlH-31" value="Leaky RELU&lt;br&gt;&lt;div&gt;&lt;br&gt;&lt;/div&gt;&lt;div&gt;[10 x 1]&lt;br&gt;&lt;/div&gt;" style="whiteSpace=wrap;html=1;aspect=fixed;" vertex="1" parent="1">
          <mxGeometry x="754" y="189" width="80" height="80" as="geometry" />
        </mxCell>
        <mxCell id="gE6CBauCtL9fu7mNOvlH-32" value="" style="endArrow=classic;html=1;rounded=0;exitX=1;exitY=0.5;exitDx=0;exitDy=0;entryX=0;entryY=0.5;entryDx=0;entryDy=0;" edge="1" parent="1" source="gE6CBauCtL9fu7mNOvlH-29" target="gE6CBauCtL9fu7mNOvlH-30">
          <mxGeometry width="50" height="50" relative="1" as="geometry">
            <mxPoint x="710" y="200" as="sourcePoint" />
            <mxPoint x="760" y="150" as="targetPoint" />
          </mxGeometry>
        </mxCell>
        <mxCell id="gE6CBauCtL9fu7mNOvlH-37" value="0" style="whiteSpace=wrap;html=1;aspect=fixed;" vertex="1" parent="1">
          <mxGeometry x="911" y="150" width="20" height="20" as="geometry" />
        </mxCell>
        <mxCell id="gE6CBauCtL9fu7mNOvlH-38" value="1" style="whiteSpace=wrap;html=1;aspect=fixed;" vertex="1" parent="1">
          <mxGeometry x="911" y="170" width="20" height="20" as="geometry" />
        </mxCell>
        <mxCell id="gE6CBauCtL9fu7mNOvlH-39" value="2" style="whiteSpace=wrap;html=1;aspect=fixed;" vertex="1" parent="1">
          <mxGeometry x="911" y="190" width="20" height="20" as="geometry" />
        </mxCell>
        <mxCell id="gE6CBauCtL9fu7mNOvlH-40" value="3" style="whiteSpace=wrap;html=1;aspect=fixed;" vertex="1" parent="1">
          <mxGeometry x="911" y="210" width="20" height="20" as="geometry" />
        </mxCell>
        <mxCell id="gE6CBauCtL9fu7mNOvlH-41" value="4" style="whiteSpace=wrap;html=1;aspect=fixed;" vertex="1" parent="1">
          <mxGeometry x="911" y="231" width="20" height="20" as="geometry" />
        </mxCell>
        <mxCell id="gE6CBauCtL9fu7mNOvlH-42" value="5" style="whiteSpace=wrap;html=1;aspect=fixed;" vertex="1" parent="1">
          <mxGeometry x="911" y="251" width="20" height="20" as="geometry" />
        </mxCell>
        <mxCell id="gE6CBauCtL9fu7mNOvlH-43" value="6" style="whiteSpace=wrap;html=1;aspect=fixed;" vertex="1" parent="1">
          <mxGeometry x="911" y="271" width="20" height="20" as="geometry" />
        </mxCell>
        <mxCell id="gE6CBauCtL9fu7mNOvlH-44" value="7" style="whiteSpace=wrap;html=1;aspect=fixed;" vertex="1" parent="1">
          <mxGeometry x="911" y="291" width="20" height="20" as="geometry" />
        </mxCell>
        <mxCell id="gE6CBauCtL9fu7mNOvlH-45" value="8" style="whiteSpace=wrap;html=1;aspect=fixed;" vertex="1" parent="1">
          <mxGeometry x="911" y="311" width="20" height="20" as="geometry" />
        </mxCell>
        <mxCell id="gE6CBauCtL9fu7mNOvlH-46" value="9" style="whiteSpace=wrap;html=1;aspect=fixed;" vertex="1" parent="1">
          <mxGeometry x="911" y="331" width="20" height="20" as="geometry" />
        </mxCell>
        <mxCell id="gE6CBauCtL9fu7mNOvlH-48" value="" style="endArrow=classic;html=1;rounded=0;exitX=1;exitY=0.5;exitDx=0;exitDy=0;entryX=0;entryY=0.5;entryDx=0;entryDy=0;" edge="1" parent="1" source="gE6CBauCtL9fu7mNOvlH-25" target="gE6CBauCtL9fu7mNOvlH-26">
          <mxGeometry width="50" height="50" relative="1" as="geometry">
            <mxPoint x="390" y="200" as="sourcePoint" />
            <mxPoint x="440" y="150" as="targetPoint" />
          </mxGeometry>
        </mxCell>
        <mxCell id="gE6CBauCtL9fu7mNOvlH-49" value="" style="endArrow=classic;html=1;rounded=0;exitX=1;exitY=0.5;exitDx=0;exitDy=0;entryX=0;entryY=0.5;entryDx=0;entryDy=0;" edge="1" parent="1" source="gE6CBauCtL9fu7mNOvlH-26" target="gE6CBauCtL9fu7mNOvlH-29">
          <mxGeometry width="50" height="50" relative="1" as="geometry">
            <mxPoint x="390" y="200" as="sourcePoint" />
            <mxPoint x="440" y="150" as="targetPoint" />
          </mxGeometry>
        </mxCell>
        <mxCell id="gE6CBauCtL9fu7mNOvlH-50" value="" style="endArrow=classic;html=1;rounded=0;exitX=1;exitY=0.5;exitDx=0;exitDy=0;entryX=0;entryY=0.5;entryDx=0;entryDy=0;" edge="1" parent="1" source="gE6CBauCtL9fu7mNOvlH-30" target="gE6CBauCtL9fu7mNOvlH-31">
          <mxGeometry width="50" height="50" relative="1" as="geometry">
            <mxPoint x="390" y="200" as="sourcePoint" />
            <mxPoint x="440" y="150" as="targetPoint" />
          </mxGeometry>
        </mxCell>
        <mxCell id="gE6CBauCtL9fu7mNOvlH-51" value="" style="endArrow=classic;html=1;rounded=0;exitX=1;exitY=0.5;exitDx=0;exitDy=0;entryX=0;entryY=1;entryDx=0;entryDy=0;" edge="1" parent="1" source="gE6CBauCtL9fu7mNOvlH-31" target="gE6CBauCtL9fu7mNOvlH-40">
          <mxGeometry width="50" height="50" relative="1" as="geometry">
            <mxPoint x="390" y="200" as="sourcePoint" />
            <mxPoint x="440" y="150" as="targetPoint" />
          </mxGeometry>
        </mxCell>
        <mxCell id="gE6CBauCtL9fu7mNOvlH-52" value="&lt;b&gt;Hardware Block Diagram&lt;/b&gt;&lt;div&gt;&lt;b&gt;Handwritten digit recognition&lt;/b&gt;&lt;/div&gt;&lt;div&gt;&lt;b&gt;Inference engine&lt;/b&gt;&lt;/div&gt;" style="text;html=1;align=center;verticalAlign=middle;resizable=0;points=[];autosize=1;strokeColor=none;fillColor=none;" vertex="1" parent="1">
          <mxGeometry x="404" y="70" width="190" height="60" as="geometry" />
        </mxCell>
        <mxCell id="gE6CBauCtL9fu7mNOvlH-54" value="" style="endArrow=classic;html=1;rounded=0;exitX=1;exitY=0.5;exitDx=0;exitDy=0;entryX=-0.012;entryY=0.588;entryDx=0;entryDy=0;entryPerimeter=0;" edge="1" parent="1" source="gE6CBauCtL9fu7mNOvlH-21" target="gE6CBauCtL9fu7mNOvlH-24">
          <mxGeometry width="50" height="50" relative="1" as="geometry">
            <mxPoint x="560" y="450" as="sourcePoint" />
            <mxPoint x="610" y="400" as="targetPoint" />
          </mxGeometry>
        </mxCell>
        <mxCell id="gE6CBauCtL9fu7mNOvlH-55" value="256 bits&lt;div&gt;[256x1]&lt;/div&gt;" style="text;html=1;align=center;verticalAlign=middle;resizable=0;points=[];autosize=1;strokeColor=none;fillColor=none;" vertex="1" parent="1">
          <mxGeometry x="145" y="365" width="70" height="40" as="geometry" />
        </mxCell>
      </root>
    </mxGraphModel>
  </diagram>
</mxfile>
